<svg width="24" height="24" fill="none" xmlns="http://www.w3.org/2000/svg"><path d="M3 8h2m7 0h9" stroke="#CFD1D5" stroke-width="2" stroke-miterlimit="10" stroke-linecap="round" stroke-linejoin="round"/><path d="M5 8c0-1.148.852-2 2-2 1.148 0 2 .852 2 2 0 1.148-.852 2-2 2-1.148 0-2-.852-2-2z" stroke="#CFD1D5" stroke-width="2"/><path d="M3 16h8m7 0h3" stroke="#CFD1D5" stroke-width="2" stroke-miterlimit="10" stroke-linecap="round" stroke-linejoin="round"/><path d="M11 16c0-1.148.852-2 2-2 1.126 0 2 .93 2 2 0 1.148-.852 2-2 2-1.148 0-2-.852-2-2z" stroke="#CFD1D5" stroke-width="2"/></svg>