<svg width="56" height="56" fill="none" xmlns="http://www.w3.org/2000/svg"><path d="M28 0C12.537 0 0 12.537 0 28c0 15.464 12.537 28 28 28 15.464 0 28-12.534 28-28C56 12.537 43.464 0 28 0z" fill="#fff"/><g clip-path="url(#clip0_1480_47337)"><path d="M49.427 16.824c-.273.409-.372.9-.455 1.413-.102.624-.21 1.223-.432 1.81-.268.705-.717 1.49-1.5 2.104a20.1 20.1 0 00-3.475-5.937c.933-.37 1.848-.364 2.6-.24.625.102 1.203.31 1.8.534.489.185.968.346 1.462.316zm-9.08-8.994c-.03.488.133.963.32 1.448.226.591.436 1.163.54 1.783.123.746.13 1.653-.245 2.578a20.383 20.383 0 00-5.999-3.435c.621-.781 1.417-1.23 2.13-1.496.593-.22 1.198-.327 1.829-.428.517-.083 1.013-.18 1.425-.45zm7.649 17.852c.987.144 1.773.6 2.36 1.077.489.399.884.864 1.288 1.355.33.402.664.779 1.106.997h-4.455a20.102 20.102 0 00-.299-3.43zM15.542 7.83c.412.27.909.367 1.426.45.63.1 1.235.207 1.828.428.714.266 1.51.715 2.13 1.496a20.376 20.376 0 00-5.999 3.435c-.374-.925-.368-1.832-.244-2.579.104-.619.313-1.19.54-1.782.186-.485.35-.96.319-1.449zm-9.079 8.995c.493.03.973-.132 1.462-.317.597-.224 1.174-.432 1.8-.534.752-.123 1.667-.129 2.6.24a20.107 20.107 0 00-3.475 5.937c-.783-.614-1.233-1.398-1.5-2.103-.223-.587-.33-1.186-.432-1.81-.084-.513-.183-1.005-.455-1.413zM3.14 29.112c.442-.219.776-.595 1.106-.998.404-.49.799-.956 1.288-1.354.587-.477 1.372-.933 2.36-1.078a20.088 20.088 0 00-.299 3.43H3.14zM27.945 4.537c.22.438.6.769 1.007 1.096.495.4.965.792 1.367 1.276.485.586.948 1.37 1.09 2.356a20.657 20.657 0 00-6.93 0c.143-.987.607-1.77 1.091-2.355.402-.485.872-.877 1.367-1.277.406-.327.787-.658 1.008-1.096z" fill="#FAB60F"/><path d="M23.806 29.116l1.532-.004c.2-1.281-.193-2.268-1.5-2.032-1.103.198-2.287 1.283-3.003 2.032l2.019-.009c.225-.146.665-.313.846-.189a.242.242 0 01.107.202z" fill="#D52736"/><path d="M30.692 29.112h1.91c.091-2.235-.272-4.542-1.321-6.54-.954-1.816-2.53-3.05-4.572-3.35-2.98-.435-5.986.815-8.528 2.603-2.768 1.947-5.053 4.59-7.049 7.287l2.523-.003c2.272-3.19 7.497-8.033 11.34-8.065 1.226-.01 2.471.275 3.392 1.089.667.59 1.476 1.735 1.436 2.664-.023.552-.517.72-.99.55-.368-.133-.628-.466-.885-.816-.837-1.138-2.141-1.694-3.572-1.5-1.707.23-3.822 1.544-5.187 2.738a32.872 32.872 0 00-3.275 3.343h2.713c.994-1.19 2.044-2.203 3.394-3.036a7.635 7.635 0 011.506-.73c1.394-.476 2.782-.356 3.399 1.365.242.676.277 1.27.207 2.357v.044h1.844l.005-.056c.002-.595-.012-.996.043-1.586.046-.509.206-1.036.683-1.099 1.013-.21.964 2.024.984 2.741z" fill="#D52736"/><path d="M34.61 29.112h1.927c.093-2.073-.087-4.53-.764-6.675a11.898 11.898 0 00-.46-1.226 10.482 10.482 0 00-1.619-2.541 11.097 11.097 0 00-2.584-2.246c-.29-.18-.59-.346-.9-.496a9.165 9.165 0 00-.954-.399h-.001c-3.75-1.32-7.544-.381-10.726 1.334-.62.334-1.218.698-1.786 1.08a23.18 23.18 0 00-1.619 1.191v.001c-.605.486-1.36 1.15-2.109 1.935a18.71 18.71 0 00-.434.47c-.378.426-.962 1.022-.788 1.638.137.489.773.345.995.177.34-.181.714-.468 1.034-.736.433-.363.842-.754 1.27-1.123 1.735-1.49 3.543-2.638 5.323-3.415.389-.17.777-.322 1.164-.457.386-.134.77-.25 1.15-.348h.002c3.314-.853 6.914-.301 9.22 2.376 2.22 2.578 2.626 6.03 2.66 9.46zm-23.897-2.915c.207-.191.418-.44.638-.717.307-.387.338-.76.216-1.03a.705.705 0 00-.193-.255.67.67 0 00-.278-.138c-.25-.057-.55.032-.805.339-.287.346-.685.94-.766 1.464a1.093 1.093 0 00-.009.284c.01.087.034.17.073.246a.353.353 0 00.32.194.7.7 0 00.21-.024h.001c.196-.047.393-.177.593-.363z" fill="#D52736"/><path d="M39.428 29.113h.021a.855.855 0 00.753-.419c.04-.067.075-.144.101-.232.027-.089.045-.19.053-.303l.002-.023c.153-5.3-1.486-9.687-4.267-12.668a13.569 13.569 0 00-1.748-1.575 13.217 13.217 0 00-1.977-1.235l-.011-.005c-2.338-1.184-4.99-1.639-7.592-1.42a15.208 15.208 0 00-2.996.557l-.006.002c-2.677.784-5.168 2.342-7.197 4.385a18.575 18.575 0 00-1.65 1.9c1.424-1.217 2.951-2.284 4.549-3.132a19.255 19.255 0 012.188-1.002h.002a16.796 16.796 0 014.193-1.045 15.664 15.664 0 014.198.104c1.006.159 1.989.42 2.873.785a9.817 9.817 0 01.988.475l.002.002c3.116 1.69 5.28 5.157 6.233 9.073a19.397 19.397 0 01.548 4.701v.046c.015.424.162.779.413.939a.607.607 0 00.327.09z" fill="#D52736"/><path d="M33.859 11.45c7.49 2.451 12.902 9.429 12.934 17.662h-3.706c.245-7.192-2.923-13.683-9.228-17.662z" fill="#FAB60F"/><path d="M12.112 34.887h-1.5l-.37 1.294H9.047l1.58-4.956h1.514l1.626 4.956H12.52l-.408-1.294zm-1.329-.838h1.15a41.926 41.926 0 01-.585-1.993h-.016l-.237.941-.312 1.052zm6.835.838H16.12l-.371 1.294h-1.195l1.58-4.956h1.515l1.625 4.956h-1.247l-.408-1.294zm-1.328-.838h1.15a41.881 41.881 0 01-.586-1.993h-.015l-.238.941-.311 1.052zm4.126 2.11v-4.867c.494-.074 1.024-.11 1.588-.11 1.066 0 1.832.22 2.295.662.464.442.696 1.02.696 1.734 0 .843-.264 1.496-.792 1.96-.528.463-1.343.694-2.444.694-.51 0-.957-.024-1.343-.073zm1.15-4.059v3.228c.064.015.203.022.416.022.57 0 1.014-.15 1.327-.447.313-.298.468-.724.468-1.28 0-.51-.142-.899-.428-1.166-.285-.267-.697-.401-1.234-.401a2.83 2.83 0 00-.55.044zm4.66-.875h1.15v1.905h1.967v-1.905h1.15v4.956h-1.15v-2.066h-1.966v2.066h-1.15v-4.956zm8.438 3.662h-1.5l-.37 1.294h-1.195l1.58-4.956h1.515l1.625 4.956h-1.247l-.408-1.294zm-1.328-.838h1.15a41.881 41.881 0 01-.586-1.993h-.015l-.238.941-.311 1.052zm6.834.838h-1.499L38.3 36.18h-1.195l1.58-4.956H40.2l1.625 4.956h-1.247l-.408-1.294zm-1.328-.838h1.15a41.881 41.881 0 01-.586-1.993h-.015l-.238.941-.311 1.052zm4.126 2.132v-4.89c.42-.073.937-.11 1.55-.11.758 0 1.302.124 1.633.371.332.248.498.602.498 1.063 0 .274-.083.522-.25.744a1.335 1.335 0 01-.648.47v.029c.311.115.537.419.675.911.255.887.393 1.358.416 1.412h-1.173c-.099-.184-.218-.569-.356-1.154-.07-.294-.163-.5-.282-.618-.119-.118-.31-.176-.572-.176h-.356v1.948h-1.136zm1.135-4.125v1.36h.475c.287 0 .513-.065.68-.193a.623.623 0 00.248-.52c0-.218-.074-.387-.224-.506-.15-.119-.363-.178-.637-.178-.27 0-.45.013-.542.037z" fill="#D52736"/></g><defs><clipPath id="clip0_1480_47337"><path fill="#fff" transform="translate(2.8 4.2)" d="M0 0h50.4v32.2H0z"/></clipPath></defs></svg>