<svg width="24" height="24" fill="none" xmlns="http://www.w3.org/2000/svg"><path d="M19.8 13.513s-1.129-1.25-3.811-.906c-2.346.302-3.225 1.813-3.225 1.813m.586.3s-1.759-.755-3.225-.302c-1.466.453-2.052 1.813-2.052 1.813m.586-1.813s-.516-2.371 0-4.23c.443-1.595 1.917-2.718 2.052-2.718 0 0 2.053 0 2.346-.303.293-.302 1.172-.604 1.172-1.208s0-.906-.586-.906" stroke="#6E7480" stroke-width="2" stroke-miterlimit="10" stroke-linecap="round" stroke-linejoin="round"/><path d="M19.507 18.95s-3.225.907-7.623.907c-2.407 0-4.732-.027-6.157-.604-.865-.35-1.173-.907-1.466-1.511-.293-.604.466-5.335 2.639-9.365.7-1.3 1.266-1.743 1.733-2.236.507-.538.894-1.072 1.199-1.39.293-.302 1.172-1.208 1.466-1.208.293 0 2.052 0 2.345.302.293.302 0 1.208-.293 1.51-.293.303-1.173.605-1.466 0" stroke="#6E7480" stroke-width="2" stroke-miterlimit="10" stroke-linecap="round" stroke-linejoin="round"/></svg>