<svg width="24" height="24" fill="none" xmlns="http://www.w3.org/2000/svg"><path fill-rule="evenodd" clip-rule="evenodd" d="M16.5 3s3.529 7.964-3.5 13c.5.5.75.75.75 1s-.25.5-.75 1l1.976 1v2H9v-2l2-1c-.5-.5-.75-.75-.75-1s.25-.5.75-1C3.971 10.964 7.5 3 7.5 3h9zm4.991 3c.154 0 .29.075.393.205.103.13.137.317.103.466-.017.094-.462 2.481-1.864 4.794-.443.73-.932 1.368-1.463 1.91a6.951 6.951 0 00-.455-1.08 9.973 9.973 0 001.063-1.445c.855-1.418 1.334-2.91 1.556-3.73h-2.958A11.016 11.016 0 0017.729 6h3.762zM4.749 10.887c.325.526.674.996 1.045 1.41-.179.341-.33.7-.452 1.073a10.45 10.45 0 01-1.465-1.905C2.475 9.171 2.03 6.783 2.013 6.672a.563.563 0 01.102-.467A.496.496 0 012.51 6h3.574c-.051.354-.103.727-.12 1.12H3.176c.222.839.7 2.33 1.573 3.767z" fill="#6E7480" opacity=".5"/></svg>