<svg width="40" height="40" fill="none" xmlns="http://www.w3.org/2000/svg"><path d="M12.312 12.312C7.184 17.443 5.183 24.512 6.3 31.16a3.097 3.097 0 002.537 2.537c6.65 1.12 13.719-.879 18.851-6.01 5.128-5.13 7.129-12.2 6.012-18.847a3.097 3.097 0 00-2.537-2.537c-6.65-1.126-13.721.876-18.851 6.008zM7.208 32.795l5.575-5.58m14.306-14.309l5.703-5.702m-18.04 18.043L25.1 14.94m-12.815 7.996l4.822 4.824m-1.339-8.307l4.822 4.824m-1.34-8.307l4.822 4.823m-1.34-8.307l4.822 4.824" stroke="#fff" stroke-width="2" stroke-miterlimit="10" stroke-linecap="round" stroke-linejoin="round"/></svg>