<svg width="24" height="24" fill="none" xmlns="http://www.w3.org/2000/svg"><g opacity=".5"><circle cx="17" cy="14" r="4" fill="#6E7480"/><circle cx="10" cy="17" r="4" fill="#6E7480"/><path d="M4.131 8.135c.723-2.907 3.615-3.41 5.182-3.02.75.188 1.681 1.032 1.687 2.237.006 1.313-.932 2.744-2.23 3.3C6.42 11.658 5.549 12.514 5.036 13c-.12-.447-.24-1.007-.542-1.733-.301-.727-.705-1.752-.362-3.132z" fill="#6E7480"/><path d="M10.318 13.563C11.463 11.437 12.803 6.55 9.007 4c3.809.688 6.493 4.5 6.993 6.5" stroke="#6E7480" stroke-width="2" stroke-linejoin="round"/></g></svg>