<svg width="24" height="24" fill="none" xmlns="http://www.w3.org/2000/svg"><path d="M11.649 14.902c1.836-1.836 1.538-5.11-.665-7.313-2.203-2.203-5.477-2.501-7.313-.665-1.836 1.836-1.539 5.11.665 7.313 2.203 2.203 5.477 2.5 7.313.665z" stroke="#6E7480" stroke-width="2" stroke-miterlimit="10"/><path d="M6.533 15.696c1.912.889 5.068.489 6.113 1.534l3.514 3.514a.872.872 0 101.234-1.235l-3.512-3.515c-.854-.854-.772-3.538-1.17-5.355m-.018 6.543l1.234-1.235m3.365-5.387a3.107 3.107 0 100-6.214 3.107 3.107 0 000 6.214z" stroke="#6E7480" stroke-width="2" stroke-miterlimit="10"/><path d="M14.212 7.854s1.306-.316 2.236.446c.93.76.646 2.255.646 2.255M20.4 7.496s-1.838.717-2.853-.466c-1.014-1.183-.431-2.678-.431-2.678" stroke="#6E7480" stroke-width="2" stroke-miterlimit="10"/></svg>