<svg width="24" height="24" fill="none" xmlns="http://www.w3.org/2000/svg"><circle cx="17" cy="14" r="3" stroke="#6E7480" stroke-width="2" stroke-linejoin="round"/><circle cx="10" cy="17" r="3" stroke="#6E7480" stroke-width="2" stroke-linejoin="round"/><path d="M5.102 8.377c.279-1.122.949-1.743 1.704-2.072.795-.347 1.683-.364 2.265-.219.15.038.395.17.603.414.196.231.324.522.326.857.004.896-.681 1.972-1.623 2.375-1.299.557-2.184 1.078-2.815 1.525a9.81 9.81 0 00-.145-.373c-.287-.691-.576-1.458-.315-2.507z" stroke="#6E7480" stroke-width="2" stroke-linejoin="round"/><path d="M10 14c1.5-2 2.803-7.45-.993-10 3.809.688 6.493 4.5 6.993 6.5" stroke="#6E7480" stroke-width="2" stroke-linejoin="round"/></svg>