<svg width="24" height="24" fill="none" xmlns="http://www.w3.org/2000/svg"><path fill-rule="evenodd" clip-rule="evenodd" d="M12 20a8 8 0 100-16 8 8 0 000 16zm0 2c5.523 0 10-4.477 10-10S17.523 2 12 2 2 6.477 2 12s4.477 10 10 10z" fill="#6E7480"/><path fill-rule="evenodd" clip-rule="evenodd" d="M12 15a3 3 0 100-6 3 3 0 000 6zm0 2a5 5 0 100-10 5 5 0 000 10z" fill="#6E7480"/><path fill="#6E7480" d="M11 3h2v3h-2zm8.294 3.635l1 1.732-4.33 2.5-1-1.732zM20.589 16l-1 1.732-2.521-1.456 1-1.732zM11 18h2v3h-2zm-2.964-4.865l1 1.732-4.33 2.5-1-1.732zM7.16 8.246l-1 1.732L4 8.731 5 7z"/></svg>