<svg width="24" height="24" fill="none" xmlns="http://www.w3.org/2000/svg"><path d="M3.491 7.89a8.465 8.465 0 004.115 3.505 8.386 8.386 0 004.283.514m-9.063.961c1.546 1.678 3.529 2.796 5.615 3.188a8.655 8.655 0 004.852-.462" stroke="#6E7480" stroke-width="2" stroke-miterlimit="10"/><path d="M12.279 21.212a8.468 8.468 0 001.165-5.278 8.375 8.375 0 00-1.555-4.026m5.098 7.556c.758-2.153.814-4.428.182-6.453a8.66 8.66 0 00-2.683-4.07" stroke="#6E7480" stroke-width="2" stroke-miterlimit="10"/><path d="M19.419 6.4a8.455 8.455 0 00-5.02 2 8.38 8.38 0 00-2.457 3.547m3.388-8.461c-2.207.584-4.12 1.814-5.442 3.475a8.654 8.654 0 00-1.86 4.506" stroke="#6E7480" stroke-width="2" stroke-miterlimit="10"/><path d="M12 21.3a9.3 9.3 0 009.3-9.3 9.3 9.3 0 10-18.6 0 9.3 9.3 0 009.3 9.3z" stroke="#6E7480" stroke-width="2" stroke-miterlimit="10"/></svg>