<svg width="24" height="24" fill="none" xmlns="http://www.w3.org/2000/svg"><path d="M12 6.514c2.876 0 3.273-1.114 5.103-1.114C20.258 5.4 21 8.184 21 9.668c0 1.485-.534 4.8-.742 6.68-.371 3.341-3.34 2.599-4.083 0-.742-2.597-.742-3.34-4.175-3.34s-3.433.743-4.175 3.34c-.743 2.599-3.712 3.341-4.083 0C3.534 14.469 3 11.154 3 9.669 3 8.184 3.742 5.4 6.897 5.4 8.753 5.4 9.124 6.514 12 6.514z" stroke="#6E7480" stroke-width="2" stroke-miterlimit="10" stroke-linecap="round" stroke-linejoin="round"/><path d="M17.4 11.4a1.8 1.8 0 100-3.6 1.8 1.8 0 000 3.6zm-10.8 0a1.8 1.8 0 100-3.6 1.8 1.8 0 000 3.6z" fill="#6E7480"/></svg>