<svg width="56" height="56" fill="none" xmlns="http://www.w3.org/2000/svg"><path d="M0 28C0 12.536 12.536 0 28 0s28 12.536 28 28-12.536 28-28 28S0 43.464 0 28z" fill="#fff"/><path d="M28 20.558c2.278 0 3.815.984 4.692 1.807l3.424-3.344c-2.103-1.954-4.84-3.154-8.116-3.154-4.745 0-8.844 2.723-10.84 6.686l3.924 3.047c.984-2.925 3.707-5.042 6.916-5.042z" fill="#EA4335"/><path d="M39.648 28.27c0-.998-.08-1.726-.256-2.48H28v4.502h6.687c-.135 1.119-.863 2.804-2.48 3.936l3.828 2.966c2.292-2.116 3.613-5.23 3.613-8.924z" fill="#4285F4"/><path d="M21.098 30.4a7.467 7.467 0 01-.405-2.4c0-.836.148-1.645.391-2.4l-3.923-3.046A12.144 12.144 0 0015.867 28c0 1.955.472 3.802 1.294 5.447l3.937-3.047z" fill="#FBBC05"/><path d="M28 40.133c3.276 0 6.026-1.078 8.035-2.938l-3.829-2.966c-1.024.714-2.4 1.213-4.206 1.213-3.209 0-5.932-2.117-6.902-5.042l-3.924 3.047c1.996 3.963 6.08 6.686 10.826 6.686z" fill="#34A853"/></svg>