<svg width="24" height="24" fill="none" xmlns="http://www.w3.org/2000/svg"><path d="M17.84 19.256l-.372.684a.672.672 0 01-.25.258l-.718.42a.654.654 0 01-.83-.143l-2.95-3.445a.685.685 0 01-.084-.767l.205-.383a.67.67 0 01.248-.262l.466-.278a.653.653 0 01.77.075l3.373 3.003a.686.686 0 01.142.838zm-9.571-1.478l6.777-6.913m1.393-4.645c1.034 0 1.873-.855 1.873-1.91 0-1.054-.839-1.91-1.873-1.91s-1.873.856-1.873 1.91c0 1.055.839 1.91 1.873 1.91z" stroke="#6E7480" stroke-width="2" stroke-miterlimit="10"/><path d="M12.84 17.171c-2.318 1.523-5.603 1.104-7.82-1.157-2.522-2.571-2.707-6.55-.416-8.887 2.292-2.338 6.193-2.148 8.713.423 2.217 2.26 2.628 5.612 1.136 7.977" stroke="#6E7480" stroke-width="2" stroke-miterlimit="10"/></svg>