<svg width="56" height="56" fill="none" xmlns="http://www.w3.org/2000/svg"><path d="M28 54.365c14.56 0 26.365-11.804 26.365-26.365C54.365 13.44 42.56 1.635 28 1.635 13.44 1.635 1.635 13.44 1.635 28 1.635 42.56 13.44 54.365 28 54.365z" fill="#fff"/><path d="M28 0C12.537 0 0 12.537 0 28c0 15.464 12.537 28 28 28 15.464 0 28-12.534 28-28C56 12.537 43.464 0 28 0zm3.658 19.719l-.053.04v3.666h5.63l-.432 4.3h-5.195V42.57H25V27.726h-3.46v-4.3H25v-3.708h.011c-.003-.422.03-3.125 1.305-4.199 1.716-2.073 4.597-2.07 4.597-2.07s1.95-.073 3.471.04c1.917.144 3.5.479 3.5.479l-.907 4.645s-2.473-.617-3.859-.295c-1.397.287-1.523 1.395-1.523 1.395h.063v.006z" fill="#3F88E8"/></svg>