<svg width="24" height="24" fill="none" xmlns="http://www.w3.org/2000/svg"><path d="M20.407 4.8s-2.917 3.447-3.58 4.243c-.662.795-1.193 2.253-5.7 1.325-4.507-.928-6.363-1.59-7.82-.397-1.46 1.193-1.194 4.242 1.06 5.037 2.253.796 3.711.53 3.711.53M21.6 5.994s-3.58 5.303-7.026 7.954" stroke="#6E7480" stroke-width="2" stroke-miterlimit="10" stroke-linecap="round" stroke-linejoin="round"/><path d="M11.856 17.262c2.087 0 3.778-.89 3.778-1.988 0-1.099-1.691-1.989-3.778-1.989-2.086 0-3.778.89-3.778 1.989 0 1.098 1.692 1.988 3.778 1.988z" stroke="#6E7480" stroke-width="2" stroke-miterlimit="10" stroke-linecap="round" stroke-linejoin="round"/><path d="M15.634 15.273v1.724c0 1.097-1.691 1.988-3.778 1.988-2.086 0-3.778-.89-3.778-1.988v-1.724" stroke="#6E7480" stroke-width="2" stroke-miterlimit="10" stroke-linecap="round" stroke-linejoin="round"/></svg>