<svg width="24" height="24" fill="none" xmlns="http://www.w3.org/2000/svg"><path d="M15.622 11.69l.707-.707-.707.707zm1.543 7.365l.707-.707-.707.707zM5.12 6.225L6.225 5.12 4.81 3.707 3.707 4.81l1.414 1.415zm7.276 8.69L5.121 7.639 3.707 9.053l7.276 7.276 1.414-1.414zm5.475 3.433l-3.433-3.433-1.415 1.414 3.434 3.433 1.414-1.414zm-2.957-3.91l3.433 3.434 1.414-1.415-3.433-3.433-1.414 1.415zM7.639 5.122l7.276 7.276 1.414-1.414-7.276-7.276L7.64 5.121zm8.69 9.318a2.443 2.443 0 000-3.456l-1.414 1.414a.443.443 0 010 .627l1.414 1.415zm.128 5.323a2.337 2.337 0 003.305 0l-1.414-1.414a.337.337 0 01-.476 0l-1.415 1.414zm-5.474-3.433a2.443 2.443 0 003.456 0l-1.415-1.414a.443.443 0 01-.627 0l-1.414 1.414zM6.225 5.12a1 1 0 011.414 0l1.414-1.414a3 3 0 00-4.243 0L6.225 5.12zm13.537 14.641a2.337 2.337 0 000-3.305l-1.414 1.415a.337.337 0 010 .476l1.414 1.414zM3.707 4.81a3 3 0 000 4.243L5.121 7.64a1 1 0 010-1.414L3.707 4.81z" fill="#6E7480"/><circle cx="17.5" cy="5.5" r="2.5" fill="#6E7480"/></svg>