<svg width="24" height="24" fill="none" xmlns="http://www.w3.org/2000/svg"><path d="M19.257 13.16a7.728 7.728 0 000-2.35L21 9.035a9.855 9.855 0 00-1.953-3.402l-2.404.602a8.4 8.4 0 00-2.014-1.175l-.66-2.378a10.8 10.8 0 00-1.984-.181c-.691 0-1.322.06-1.953.21L9.37 5.09c-.752.27-1.413.692-2.014 1.174l-2.404-.602A9.334 9.334 0 003 9.064l1.743 1.777a7.728 7.728 0 000 2.348L3 14.936a9.856 9.856 0 001.953 3.402l2.404-.602a8.4 8.4 0 002.014 1.174l.66 2.38c.632.12 1.293.21 1.954.21s1.322-.06 1.953-.21l.661-2.38c.752-.27 1.413-.692 2.014-1.174l2.404.602a9.335 9.335 0 001.953-3.402l-1.713-1.777zm-7.272 3.191a4.365 4.365 0 01-4.357-4.366 4.365 4.365 0 014.357-4.366 4.365 4.365 0 014.357 4.366 4.346 4.346 0 01-4.357 4.366z" fill="#6E7480"/></svg>