<svg width="24" height="24" fill="none" xmlns="http://www.w3.org/2000/svg"><path d="M8.518 11.086S6.945 8.273 6.945 6.164c0-2.11 1.43-3.094 5.577-3.094s6.007 1.97 6.007 4.078c0 2.11-.501 8.649-2.217 9.493-.775.38-2.04.392-3.432.422-1.692.035-3.484.015-3.72-.308-.524-.718-1.09-2.558-2.215-3.42-1.288-.983-2.003-4.358-1.002-4.92 1.002-.563 1.43.28 2.575 2.67z" stroke="#6E7480" stroke-width="2" stroke-miterlimit="10" stroke-linecap="round" stroke-linejoin="round"/><path d="M16.24 16.71v2.392c0 .703.143 1.828-3.289 1.828s-3.432-.282-3.432-1.407V16.94" stroke="#6E7480" stroke-width="2" stroke-miterlimit="10" stroke-linecap="round" stroke-linejoin="round"/><path d="M11.816 17.074s-.08 1.675.348 2.097c.43.422 2.718 0 4.076-.352" stroke="#6E7480" stroke-width="2" stroke-miterlimit="10" stroke-linecap="round" stroke-linejoin="round"/></svg>