<svg width="76" height="21" fill="none" xmlns="http://www.w3.org/2000/svg"><path d="M3.77 21c-.911 0-1.72-.428-2.43-1.283-.708-.875-1.154-1.935-1.34-3.18h14.092v-3.733H3.77c-1.012 0-1.881-.418-2.606-1.254C.439 10.714.076 9.712.076 8.546V4.229c0-1.167.363-2.158 1.088-2.975C1.889.418 2.758 0 3.77 0h10.524c1.012 0 1.872.418 2.58 1.254.726.817 1.089 1.808 1.089 2.975v12.542c0 1.147-.363 2.139-1.088 2.975-.709.836-1.569 1.254-2.58 1.254H3.77zM4.807 8.312h9.285V4.463H3.972v3.85h.835z" fill="#F33"/><path d="M24.795 21L19.824 5.25h1.631l4.004 12.644L29.444 5.25h1.86l4.003 12.644L39.272 5.25h1.67L35.971 21h-1.347l-4.25-13.453L26.123 21h-1.33zm17.717 0V5.25h1.556V21h-1.556zm4.133 0V5.25h2.107L58.77 18.988V5.25h1.537V21h-2.106L48.182 7.262V21h-1.537zm15.693 0v-2.428l11.916-11.55H62.338V5.25H76v2.428l-11.916 11.55H76V21H62.338z" fill="#FC9"/></svg>