<svg width="24" height="24" fill="none" xmlns="http://www.w3.org/2000/svg"><path fill="#6E7480" d="M16.644 5.255l1.414 1.414L6.67 18.058l-1.414-1.414z"/><path fill-rule="evenodd" clip-rule="evenodd" d="M16.214 7.175A11.691 11.691 0 0012 6.395C7.768 6.395 4.06 8.638 2 12a11.77 11.77 0 004.933 4.456l2.118-2.118a3.822 3.822 0 015.288-5.288l1.875-1.875zm1.893.935l-2.434 2.434a3.822 3.822 0 01-5.129 5.129L9 17.218a11.77 11.77 0 003 .387c4.232 0 7.94-2.243 10-5.605a11.78 11.78 0 00-3.893-3.89zm-6.377 6.377a2.293 2.293 0 002.757-2.757l-2.757 2.757zm1.486-4.314a2.293 2.293 0 00-3.044 3.044l3.044-3.044z" fill="#6E7480"/></svg>