<svg width="31" height="27" fill="none" xmlns="http://www.w3.org/2000/svg"><path fill-rule="evenodd" clip-rule="evenodd" d="M24.236 4.58c-.153.852-.153.852-.264 1.396-.278.768-.639 1.382-1.097 2.053-.028.014-.042.028-.07.042-1.277 1.466-2.805 2.373-4.638 3.015-.361.084-.361.084-.403.112v.084c.125.126.361.098.514.098.139.042.139.042.36.055.668.21 1.306.461 1.918.824.041.056.333.266.805.684l.417.503c.291.42.5.908.68 1.396l.167.755c.028.279.028.279.028 1.005-.056.349-.125.698-.18 1.047-.098.21-.126.363-.292.782-.362.726-.764 1.396-1.292 2.01a17.078 17.078 0 01-2.07 1.816c-.125.056-.319.125-.402.237-1.14.642-2.264 1.075-3.5 1.508-.764.154-1.514.307-2.292.405-1.417.084-1.417.084-1.82.126-1.25.042-6.069.279-6.152.265-.07-.07-.056-.251 0-.321 1.291-.377 2.61-.81 3.916-1.131.112-.042 2.306-.684 2.528-.768.986-.21 1.959-.587 2.93-.852.223-.084 1.39-.405 2.473-.726a30.06 30.06 0 002.903-.852c.041-.055.041-.111.041-.181-.027-.014-.055-.042-.069-.056-.083 0-1.333.321-7.167 1.745-.027.014-.055.028-.07.042-1.069.21-2.138.517-3.207.768a4.5 4.5 0 00-.237.084c-4.041.963-4.041.963-4.138 1.005h-.112c-.083-.111-.138-.125-.11-.279.305-.195.305-.195 1.055-.628.194-.084 2.042-1.145 2.222-1.229 1.472-.88 3-1.704 4.472-2.57 1.236-.683 2.486-1.396 3.723-2.08.041-.028.083-.055.125-.097.944-.49 1.86-1.034 2.791-1.55.43-.182.89-.461 1.278-.726.07-.098.014-.224-.097-.238-.903.461-1.792.936-2.68 1.397-.14.042-.14.042-.279.14-2.555 1.312-2.555 1.312-2.763 1.395-.292.182-1.056.559-1.125.615a107.524 107.524 0 00-3.32 1.745c-.042.014-.07.014-.097.028-.597.405-1.32.67-1.93 1.047-1.07.53-2.153 1.09-3.209 1.648-.125.028-.93.6-.847.042.375-.35.75-.712 1.125-1.061.11-.126.403-.391.444-.405.403-.447.861-.964 1.361-1.299.028-.042.07-.084.098-.14.972-.907 1.958-1.828 2.888-2.792 2.792-2.68 5.598-5.362 8.403-8 .084-.112.167-.224.292-.294 1.708-1.648 1.82-1.773 3.847-3.714.139-.098.139-.098.18-.182 0-.335-.194-.181-.374-.041-.5.502-1.042.95-1.556 1.438-.194.279-.542.474-.764.74-.486.447-1.055 1.047-1.61 1.438-.404.405-.862.824-1.306 1.173-1.598 1.55-3.362 2.946-4.945 4.51-.778.614-1.458 1.41-2.25 2.01-.208.238-.208.238-1.625 1.55a.932.932 0 01-.153.098 354.914 354.914 0 01-4.805 4.343c-.18 0-.222-.042-.209-.224 1.931-2.82 3.862-5.655 5.764-8.49C9.236 11.702 10 10.5 10.82 9.356c.584-.866.625-.95.834-1.229 1.486-2.22 3.041-4.454 4.5-6.702.18-.181.125-.293-.111-.265-1.236 1.745-2.514 3.463-3.736 5.236-.209.265-.598.852-4.737 6.674-.097.154-1.583 2.192-1.68 2.318-1.334 1.87-2.668 3.769-4.03 5.612-.07.056-.139.112-.236.056v-.168c.972-2.54 2-5.096 3.056-7.595 1.541-3.896 3.083-7.82 4.652-11.715 0-.084 0-.084-.055-.154a.208.208 0 00-.153.056C7.93 4.175 6.694 6.87 5.485 9.565c-.055.07-1.32 2.904-1.68 3.63-.153.377-.278.614-.445 1.005-1.028 2.178-2.014 4.399-3 6.605-.125.055-.236.07-.361.014.014-.154.014-.154.5-1.955.042-.098.18-.643.222-.754.042-.196.084-.293.556-2.165.25-.935.5-1.87.764-2.792.041-.196 2.402-8.783 2.43-8.908.084-.28.153-.545.236-.824.306-1.2.625-2.318.861-3.281.028-.07.056-.084.112-.126 4.222 0 8.458.014 12.694-.014 1.292.07 2.611.293 3.806.852.125.097.125.097.43.265.264.196.542.419.792.67.139.196.264.391.403.587.083.195.152.405.236.6.055.293.125.587.18.866 0 .223 0 .475.014.74zM31 5.683c-.083.6-.18 1.159-.347 1.731-.347.726-.347.726-.57 1.131-.402.615-.916 1.131-1.458 1.62-.528.405-.528.405-1.097.81-.68.405-1.43.726-2.153 1.061-.278.084-.611.154-.861.307 0 .07 0 .07.014.098.93.098 1.75.419 2.528.935.375.322.736.643 1.055 1.034.375.544.667 1.075.889 1.69l.167.74c.041.39.041.781.041 1.186-.125 1.145-.541 2.164-1.152 3.142-.39.544-.39.544-.778 1.047-.667.698-1.486 1.494-2.375 1.899-.653.488-1.528.796-2.278 1.103-.472.14-.958.293-1.43.447-1.07.195-1.07.195-1.181.237-.82.084-.82.084-1.042.126-4.75.195-9.555.111-14.305.111-.056-.097-.084-.237.041-.293 2.278-.098 4.57-.21 6.848-.28.444 0 .93.015 1.36-.055 1.528-.056 3.015-.126 4.528-.363.098-.042.5-.126 1.098-.28 2.958-.963 5.652-2.848 6.902-5.808.084-.265.084-.265.167-.419l.208-1.005c.014-.824.014-.824 0-1.145a5.231 5.231 0 00-.86-2.248c-.209-.223-.403-.46-.612-.684-.972-.768-1.93-1.285-3.18-1.382 0-.098.027-.112.11-.154.306-.084.306-.084.737-.237 1.972-.866 3.736-2.025 4.847-3.924.111-.251.222-.517.333-.782a9.325 9.325 0 00.362-1.955 18.469 18.469 0 01-.056-.88c-.056-.18-.111-.376-.167-.572-.236-.572-.486-.921-.916-1.354-.68-.545-1.445-.95-2.306-1.145 0-.014 0-.042.014-.056.444-.084.986 0 1.43.028.209.042.209.042.959.126.25.055.5.111.764.167.805.224 1.61.503 2.291.992.195.181.403.363.598.544.166.265.333.517.5.768.083.251.166.489.25.74.014.363.07.782.083 1.2z" fill="#F94F00"/></svg>