<svg width="104" height="20" fill="none" xmlns="http://www.w3.org/2000/svg"><g clip-path="url(#clip0_1975_9885)" fill="#3D4656"><path d="M16.956 1.8h11.632v2.6H20.01v3.8h5.718v2.6H20.01v4.3h8.872v2.6H16.956V1.8z"/><path d="M27.996 6.4h3.056l2.76 7.9 2.563-7.9h2.958l-4.14 11.3h-2.76L27.995 6.4zm10.844 5.7a5.914 5.914 0 016.604-5.2c2.662.4 4.732 2.5 5.127 5.2.098 3.2-2.366 5.8-5.52 5.8h-.395c-3.056.2-5.619-2.2-5.816-5.3v-.5zm8.675.1c0-2.2-1.085-3.5-2.76-3.5-1.676 0-2.86 1.3-2.86 3.4v.1c0 2.1 1.085 3.3 2.76 3.3 1.677 0 2.86-1.2 2.86-3.3zM51.95 1.6h3.057v16.1H51.95V1.6zm4.732 11.6V6.4h2.958V13c0 1.5.69 2.4 2.07 2.4 1.577 0 2.267-1.3 2.267-3.2V6.4h2.958v11.3h-2.958v-1.6c-.591 1.2-1.774 1.9-3.154 1.8-2.563 0-4.14-1.8-4.14-4.7zm13.111 1.5V8.8h-1.577V6.4h1.577V4.3l2.958-1.6v3.8h2.168v2.4h-2.267v5.6c0 .5.296.8.789.8h1.281v2.5h-2.267c-2.169-.2-2.662-1.2-2.662-3.1zM76.3 1.9h3.154v2.9H76.3V1.9zm0 4.5h3.055v11.3H76.3V6.4zm4.337 5.7a5.914 5.914 0 016.605-5.2c2.661.4 4.731 2.5 5.126 5.2.098 3.2-2.366 5.8-5.52 5.8h-.395c-3.056.2-5.619-2.2-5.816-5.3v-.5zm8.773.1c0-2.2-1.084-3.5-2.76-3.5-1.676 0-2.859 1.2-2.859 3.4v.1c0 2.1.986 3.3 2.76 3.3 1.775 0 2.86-1.2 2.86-3.3zm4.338-5.8h2.957v1.8c.592-1.3 1.873-2.2 3.352-2.1 2.464 0 3.943 1.6 3.943 4.8v6.8h-2.957v-6.6c0-1.6-.592-2.4-1.972-2.4s-2.267 1.1-2.267 3.3v5.7h-2.958l-.098-11.3zm-81.13 13.4a.89.89 0 01-.887-.9c0-.5.394-.9.887-.9s.887.4.887.9c.099.5-.296.9-.887.9zm0-2.1c-.591 0-1.183.5-1.084 1.2 0 .6.492 1.2 1.183 1.1.591 0 1.084-.5 1.084-1.2 0-.6-.493-1.1-1.183-1.1zm-1.873-8.5c.986 0 2.07 0 3.056-.1-.099-2-.789-3.9-1.972-5.6.099.4.099.8.099 1.2 0 1.6-.394 3.2-1.183 4.5zm-.395.6C8.676 12.4 5.719 14 2.663 14h-.69C1.182 15.3.592 16.6 0 17.9c4.535 2.5 10.154.8 12.618-3.7.69-1.3 1.084-2.8 1.183-4.3-1.183-.1-2.267-.1-3.45-.1z"/><path d="M0 1.2c1.577 3.6 2.859 7.8 10.745 8 .789-1.4 1.183-2.9 1.183-4.4 0-.4 0-.8-.099-1.2C8.971 0 4.042-1 0 1.2zm10.35 8.6c-4.731.2-6.998 2-8.378 4.1h.69c3.056 0 6.013-1.5 7.689-4.1zm1.874 8.9h-.197v-.1h.492v.1h-.197v.5h-.197l.099-.5zm.394-.1h.197l.099.4.098-.4h.197v.6h-.197v-.5l-.197.5h-.098l.098-.5v.5h-.098v-.6h-.099z"/></g><defs><clipPath id="clip0_1975_9885"><path fill="#fff" d="M0 0h104v20H0z"/></clipPath></defs></svg>