<svg width="71" height="32" fill="none" xmlns="http://www.w3.org/2000/svg"><path d="M67.602.005c.057.018.113.047.17.056 1.42.268 2.482 1.56 2.463 2.988-.019 1.437-1.11 2.691-2.539 2.917-1.63.263-3.182-.874-3.46-2.537-.254-1.526.908-3.1 2.487-3.373.061-.009.118-.037.174-.056.235.005.47.005.705.005zM0 27.72c.456-.967 1.166-1.329 2.29-1.155.281.042.564.132.836.22.07.024.141.132.15.212.024.174.005.357.005.531-.348-.103-.667-.244-1.001-.287a2.95 2.95 0 00-1.015.057c-.386.094-.565.413-.536.78.023.352.216.578.61.676.344.085.692.141 1.03.235 1.086.3 1.533 1.428.926 2.302-.244.352-.592.545-1 .643-.062.014-.118.038-.175.057h-.705c-.052-.014-.103-.033-.15-.047-.358-.113-.715-.216-1.068-.338a.277.277 0 01-.145-.179c-.02-.188-.005-.38-.005-.601.113.052.188.09.263.127.588.258 1.185.455 1.838.333.325-.06.55-.249.635-.578.122-.488-.127-.906-.644-1.052-.25-.07-.503-.117-.757-.169C.7 29.36.183 29.045 0 28.331v-.61zm38.55 4.275c-.39-.117-.767-.244-1.058-.554-.55-.587-.65-1.687-.203-2.438.405-.681 1.209-.987 2.022-.766.677.183 1.142.78 1.208 1.564.014.17 0 .343 0 .536h-2.74c-.038.48.366.93.883.996a2.09 2.09 0 001.43-.338c.075-.047.15-.1.267-.174 0 .225.01.408-.005.592-.004.06-.075.145-.136.169-.334.145-.672.272-1.01.408-.221.005-.438.005-.659.005zm1.217-2.26c.014-.572-.41-.948-1.03-.934-.526.014-.973.456-.93.935h1.96zm-28.014 2.26c-.019-.014-.038-.033-.057-.033-.676-.108-1.118-.639-1.034-1.38.07-.602.616-1.03 1.345-1.015.338.009.677.089 1.015.136.113-.56-.15-.907-.738-.926-.498-.018-.954.141-1.42.404 0-.225-.004-.422.005-.615.005-.047.061-.103.113-.127.578-.253 1.18-.357 1.805-.202.56.136.921.545.936 1.118.023.827.004 1.658.004 2.504h-.639a5.1 5.1 0 01-.023-.188c-.264.108-.527.216-.79.329-.179-.005-.348-.005-.522-.005zm1.293-1.221c0-.418-.01-.46-.386-.55a2.412 2.412 0 00-.757-.051c-.31.028-.512.244-.53.502a.622.622 0 00.436.667c.301.108.597.07.889-.06.225-.109.428-.236.348-.508zm17.511 1.221c-.395-.122-.775-.258-1.076-.573-.593-.625-.691-1.686-.202-2.433.48-.728 1.452-1.024 2.303-.695.804.31 1.284 1.155 1.152 2.038-.127.874-.635 1.428-1.495 1.616-.028.005-.052.029-.075.043-.198.004-.405.004-.607.004zm1.476-2.03c0-.506-.347-.99-.883-1.117-.541-.127-1.067.103-1.312.573-.277.535-.16 1.287.263 1.64.386.319.823.37 1.27.164.474-.22.653-.644.662-1.26zm-13.37 2.03c-.648-.272-.775-.46-.775-1.188v-1.903h-.625v-.62h.672c0-.296.01-.568-.005-.84-.005-.151.038-.25.179-.32.145-.07.282-.16.456-.263v1.418h.874v.616h-.87v1.353c0 .197-.004.39 0 .587.01.4.221.587.621.545a3.8 3.8 0 00.226-.038c.108.423.066.55-.235.658-.174-.005-.344-.005-.518-.005zM52.845 8.267V7.55h4.41v.277c0 3.02-.005 6.041-.005 9.066 0 1.283.029 2.57-.009 3.852-.038 1.358-.362 2.63-1.246 3.711-.841 1.03-1.965 1.584-3.239 1.851-2.694.564-5.256.146-7.691-1.108-.235-.122-.329-.264-.324-.54.019-1.222.01-2.443.01-3.665v-.24c.568.306 1.104.625 1.668.889 1.279.587 2.619.944 4.043.869.348-.02.7-.08 1.034-.184.785-.24 1.237-.784 1.298-1.602.042-.55.01-1.103.01-1.648-.316.183-.63.39-.96.554-2.332 1.156-5.397.432-6.948-1.663-.757-1.024-1.17-2.184-1.302-3.448-.142-1.358-.02-2.692.545-3.95.921-2.063 2.524-3.21 4.776-3.43 1.246-.122 2.417.085 3.474.79.141.093.273.201.456.337zm-.004 5.351c0-.47.004-.94-.01-1.41a.487.487 0 00-.131-.3 3.204 3.204 0 00-1.942-.906c-.964-.1-1.777.183-2.285 1.052-.451.775-.489 1.62-.258 2.47.22.823.696 1.452 1.551 1.668 1.166.292 2.153-.117 2.995-.92.056-.052.075-.165.075-.254.01-.46.005-.93.005-1.4zM.099 2.034H13.13v4.138H4.66v3.124h7.64v4.143H4.662v3.026h8.481v4.274H.1V2.035zm33.293 5.501v.329c-.005 2.452-.01 4.9-.005 7.351 0 .263.033.536.113.785.287.94 1.26 1.395 2.304 1.094.578-.169 1.025-.526 1.377-1.005.061-.084.07-.22.07-.333 0-2.631 0-5.262-.004-7.892v-.315h4.405v13.2h-4.353v-.93c-.113.094-.179.15-.245.207-2.176 1.879-5.778 1.437-7.32-.902-.573-.874-.794-1.842-.756-2.88.004-.094.004-.188.004-.282 0-2.715 0-5.435-.014-8.15 0-.226.061-.287.287-.287 1.283.01 2.572.005 3.855.005.085.005.17.005.282.005zm-12.679 9.517h6.248v3.692H14.766a4.09 4.09 0 01-.01-.235c0-1.057-.004-2.114.006-3.17 0-.113.06-.259.145-.339 1.25-1.23 2.506-2.452 3.761-3.673.677-.658 1.364-1.316 2.045-1.973.052-.047.094-.104.179-.193h-6.008V7.558h11.94c.005.07.015.136.015.202 0 1.043.005 2.081-.005 3.124 0 .103-.047.23-.117.3-1.458 1.433-2.92 2.857-4.382 4.285-.498.488-.997.972-1.5 1.456-.033.028-.06.061-.122.127zm43.213 3.697h-4.395V7.553h4.395V20.75zM22.631 26.65c.226 0 .437-.015.644.009.07.01.146.103.188.174.578.93 1.147 1.865 1.72 2.8.038.065.085.126.137.21.452-.727.893-1.441 1.33-2.15.175-.278.353-.555.513-.842.09-.16.193-.225.372-.206.145.014.291.004.456.004v5.215h-.677v-3.866c-.02-.005-.038-.015-.052-.02-.64 1.034-1.284 2.068-1.956 3.148-.663-1.08-1.297-2.104-1.932-3.133-.014.005-.028.005-.042.01v3.86h-.706c.005-1.733.005-3.452.005-5.214zM5.124 31.864h-.663v-3.57h.644c.01.089.014.174.024.258 1.01-.54 1.391-.526 2.083.075.31-.263.672-.427 1.095-.455.808-.062 1.434.45 1.462 1.263.028.78.005 1.565.005 2.349 0 .024-.01.042-.02.08h-.667v-1.56c0-.211.005-.423 0-.634-.019-.733-.644-1.08-1.283-.71-.23.137-.376.292-.357.611.037.757.014 1.513.014 2.288h-.682v-2.123c0-.465-.17-.775-.484-.879-.358-.122-.884.057-1.11.386-.042.06-.051.16-.051.244-.005.705 0 1.41 0 2.114-.01.084-.01.169-.01.263zm29.777-.836c.282-.719.55-1.395.818-2.077.01-.023.014-.047.024-.065.244-.63.244-.63.964-.592-.024.066-.038.131-.062.188a373.314 373.314 0 00-1.302 3.19c-.066.164-.15.215-.329.21-.48-.009-.48-.004-.663-.44-.404-.973-.813-1.946-1.217-2.918a4.333 4.333 0 01-.09-.235c.24 0 .461-.014.673.01.06.004.14.103.169.173.305.77.606 1.541.907 2.311.028.07.061.137.108.245zm-20.13-2.735h.653v.536c.344-.526.767-.724 1.33-.634v.742c-.117 0-.23.005-.347 0-.475-.033-1.015.413-.978.972.038.56.01 1.128.01 1.692v.267h-.673c.005-1.198.005-2.377.005-3.575z" fill="#3D4656"/></svg>