<svg width="77" height="32" fill="none" xmlns="http://www.w3.org/2000/svg"><path fill-rule="evenodd" clip-rule="evenodd" d="M35.513 24.8v-9.304h4.802c1.968 0 3.629-.66 4.983-1.96l.325-.33c2.473-2.692 2.31-6.886-.325-9.377a6.854 6.854 0 00-4.983-1.997h-7.709v22.969h2.907zm0-12.125V4.653h4.875c1.048 0 2.04.403 2.781 1.136 1.571 1.538 1.607 4.102.09 5.696a3.774 3.774 0 01-2.87 1.19h-4.876zm23.668-2.362c-1.245-1.154-2.942-1.74-5.09-1.74-2.763 0-4.84 1.025-6.211 3.058l2.563 1.63c.94-1.391 2.22-2.087 3.846-2.087a4.19 4.19 0 012.798 1.08 3.464 3.464 0 011.191 2.62v.677c-1.119-.623-2.527-.953-4.26-.953-2.022 0-3.647.477-4.857 1.447-1.21.971-1.823 2.253-1.823 3.883a4.888 4.888 0 001.715 3.847c1.138 1.026 2.582 1.538 4.279 1.538 2.004 0 3.593-.897 4.802-2.692h.127v2.18h2.78v-9.69c0-2.033-.614-3.645-1.86-4.798zm-7.889 11.594a2.388 2.388 0 01-.957-1.924c0-.86.398-1.575 1.174-2.143.794-.567 1.788-.86 2.961-.86 1.625-.019 2.89.348 3.792 1.08 0 1.246-.487 2.326-1.444 3.242a4.586 4.586 0 01-3.269 1.374 3.518 3.518 0 01-2.257-.77zm15.995 9.799L77 9.086h-3.16l-4.495 11.282h-.054L64.688 9.086h-3.16l6.373 14.707-3.61 7.913h2.996z" fill="#3C4043"/><path d="M25.478 13.482c0-.898-.072-1.795-.217-2.674H13.003v5.073h7.023a6.113 6.113 0 01-2.6 4.011v3.297h4.189c2.455-2.29 3.863-5.678 3.863-9.707z" fill="#4285F4"/><path d="M13.004 26.376c3.502 0 6.463-1.173 8.611-3.187l-4.188-3.297c-1.174.806-2.672 1.264-4.423 1.264-3.394 0-6.265-2.326-7.294-5.44H1.395v3.407c2.203 4.45 6.698 7.253 11.609 7.253z" fill="#34A853"/><path d="M5.71 15.716a8.066 8.066 0 010-5.055V7.272H1.395a13.243 13.243 0 000 11.833l4.315-3.389z" fill="#FBBC04"/><path d="M13.004 5.22a6.941 6.941 0 014.982 1.98l3.72-3.773A12.448 12.448 0 0013.004 0C8.094 0 3.598 2.82 1.395 7.272L5.71 10.68c1.03-3.132 3.9-5.458 7.294-5.458z" fill="#EA4335"/></svg>