<svg width="103" height="23" fill="none" xmlns="http://www.w3.org/2000/svg"><path d="M32.286 18.231h-2.682v-3.756h-3.479v3.756h-2.69V8.667h2.69v3.614h3.486V8.667h2.683v9.564h-.008zm4.275-1.649l-.479 1.65h-2.788l3-9.559h4.055l3.05 9.558h-2.733l-.528-1.649h-3.584.007zm1.803-6.01l-1.233 4.16h2.493l-1.268-4.16h.008zm6.041-1.905h5.45c.91.006 1.635.175 2.177.491.535.323.81.976.81 1.959 0 .558-.078 1.036-.24 1.44-.148.404-.591.673-1.324.788v.067c.683.067 1.141.27 1.373.62.233.336.352.827.352 1.46 0 1.077-.225 1.797-.669 2.174-.443.377-1.253.565-2.436.565h-5.493V8.667zm4.395 3.83c.041.01.084.014.126.013h.099c.324-.007.598-.054.817-.121.225-.067.338-.303.338-.693 0-.35-.064-.586-.183-.714-.127-.134-.367-.195-.733-.195h-2.169v1.71H48.8zm.077 3.628c.422.006.775-.027 1.042-.108.282-.08.416-.357.416-.828 0-.444-.106-.713-.324-.794-.212-.081-.536-.121-.951-.121h-1.972v1.85h1.789zm7.697.457l-.48 1.65h-2.788l3-9.559h4.063l3.05 9.558h-2.733l-.528-1.649h-3.584zm1.802-6.01l-1.232 4.16h2.493l-1.268-4.16h.007zm15.732 7.66h-4.535l-2.817-7.357h-.14l.119 7.356h-2.627V8.667h4.521l2.817 7.27h.106l-.106-7.27H74.1v9.564h.007zm4.006-5.735h4.26v1.777h-4.26v1.85h4.648v2.107h-7.33V8.667h7.238v2.107h-4.563v1.723h.007zm5.908-3.83h5.042c1.282.006 2.197.215 2.747.626.549.404.823 1.245.823 2.53 0 .714-.077 1.293-.246 1.737-.162.451-.711.768-1.64.956v.087c.619.04 1.077.216 1.373.539.317.383.475.865.443 1.353v1.736h-2.732v-1.279c0-.376-.078-.686-.232-.908-.155-.222-.451-.337-.895-.337h-1.993v2.524H84.03V8.667h-.007zm4.817 4.846c.493.014.789-.094.894-.316.119-.301.171-.622.155-.943 0-.47-.05-.814-.162-1.036-.112-.222-.45-.33-1.02-.33l-1.994-.014v2.639h2.127zm4.845-.565c.002-.584.049-1.167.14-1.744.184-1.07.698-1.763 1.529-2.08a7.792 7.792 0 012.683-.498h.302c1.726 0 2.937.276 3.627.835.69.559 1.035 1.71 1.035 3.433 0 1.77-.204 3.116-.606 4.038-.408.916-1.732 1.373-3.985 1.373a17.893 17.893 0 01-1.007-.033 6.307 6.307 0 01-2.14-.444c-.67-.27-1.128-.801-1.367-1.602a4.202 4.202 0 01-.183-.99 16.125 16.125 0 01-.028-1.01v-1.278zm2.746.525v.572c0 .673.07 1.191.225 1.548s.641.532 1.472.532c.916 0 1.5-.142 1.747-.424.246-.283.366-.828.366-1.643v-.343l.021-.357v-.693c0-.64-.099-1.104-.289-1.4-.19-.296-.648-.444-1.366-.444-1.042 0-1.655.134-1.852.404-.197.269-.303.996-.324 2.2v.061-.013z" fill="#3D4656"/><path fill-rule="evenodd" clip-rule="evenodd" d="M8.506 3.504a.493.493 0 00.507-.478V1.639a.47.47 0 00-.147-.34.516.516 0 00-.712 0 .47.47 0 00-.147.34v1.387c0 .27.225.478.5.478zM6.507 4.776c.281 0 .5-.215.5-.478V2.912a.467.467 0 00-.147-.338.512.512 0 00-.707 0 .467.467 0 00-.146.338v1.386c0 .263.225.471.5.471v.007zm0-3.204c.281 0 .5-.209.5-.471A.467.467 0 006.86.763a.512.512 0 00-.707 0 .467.467 0 00-.146.338c0 .262.225.471.5.471zm4.006 3.568a.485.485 0 00.493-.478v.013a.458.458 0 00-.146-.338.504.504 0 00-.354-.14.52.52 0 00-.353.14.477.477 0 00-.147.338v-.013c0 .269.226.477.507.477z" fill="#3D4656"/><path fill-rule="evenodd" clip-rule="evenodd" d="M14.506 8.687a.484.484 0 00-.493.47V9.4a.469.469 0 01-.156.334.513.513 0 01-.707-.019.467.467 0 01-.137-.342V8.182a.47.47 0 00-.147-.34.515.515 0 00-.712 0 .47.47 0 00-.148.34v.02a.458.458 0 01-.122.374.499.499 0 01-.374.16.52.52 0 01-.374-.16.473.473 0 01-.123-.374V6.203a.46.46 0 00-.146-.338.501.501 0 00-.354-.14.52.52 0 00-.353.14.477.477 0 00-.147.338v.767c0 .27-.253.472-.5.472-.281 0-.5-.202-.5-.472V4.816a.47.47 0 00-.147-.34.516.516 0 00-.712 0 .47.47 0 00-.147.34v1.872a.467.467 0 01-.147.338.512.512 0 01-.707 0 .467.467 0 01-.146-.338v-.673a.467.467 0 00-.147-.338.512.512 0 00-.707 0 .467.467 0 00-.146.338v1.44a.467.467 0 01-.147.338.512.512 0 01-.707 0 .467.467 0 01-.146-.338v-2a.467.467 0 00-.147-.337.512.512 0 00-.707 0 .467.467 0 00-.146.338v3.062a.467.467 0 01-.147.338.512.512 0 01-.707 0 .467.467 0 01-.146-.338v-.807a.467.467 0 00-.147-.338.512.512 0 00-.707 0 .467.467 0 00-.146.338v2.248a.467.467 0 01-.147.338.512.512 0 01-.353.14.512.512 0 01-.354-.14.467.467 0 01-.146-.338v-.74a.467.467 0 00-.146-.338.512.512 0 00-.708 0 .467.467 0 00-.146.338L0 9.959v8.279l7.507 4.146 7.492-4.146V9.165a.48.48 0 00-.493-.478zm-3.465 8.117H8.683v-1.703h-2.36v1.71h-2.35v-5.365h2.352v1.804h2.359v-1.804h2.358v5.372-.014z" fill="#3D4656"/></svg>