<svg width="28" height="30" fill="none" xmlns="http://www.w3.org/2000/svg"><path d="M7.648 6.542C14.33-.286 22.486-2.044 25.73 2.575c3.243 4.67.393 14.008-6.289 20.836-6.731 6.828-14.838 8.585-18.13 3.916-3.194-4.67-.344-14.008 6.338-20.785z" fill="#F06321"/><path d="M12.07 2.927c-.737.552-1.474 1.204-2.21 1.907C4.011 10.76 1.505 18.942 4.453 23.01c2.998 4.067 10.22 2.56 16.215-3.414 3.242-3.213 5.404-6.928 6.289-10.443.245-2.56-.099-4.82-1.229-6.527-2.555-3.665-8.058-3.364-13.659.302z" fill="#AE282E"/><path d="M20.57 3.68v.15c-.049.854-.54 1.908-1.425 2.812-1.326 1.306-3.095 1.808-3.832 1.055-.836-.804-.344-2.561.982-3.967 1.376-1.355 3.145-1.807 3.882-1.004a1.3 1.3 0 01.393.954zm-5.11 23.095c-3.144 2.41-6.387 3.615-9.58 3.113 1.326.05 2.407-1.456 3.291-3.465.885-2.058 1.376-3.966 1.818-5.773.639-2.862.688-4.87.344-5.322-.54-.703-1.72-.552-3.095.25-.688.403-1.573.152-.54-1.154 1.08-1.305 5.256-4.418 6.73-4.92 1.67-.452 3.538.2 2.9 2.058-.394 1.306-6.24 16.82-1.868 15.213z" fill="#fff"/></svg>