<svg width="35" height="30" fill="none" xmlns="http://www.w3.org/2000/svg"><path d="M0 15C0 6.715 7.808 0 17.441 0c9.632 0 17.44 6.716 17.44 15 0 8.284-7.808 15-17.44 15C7.808 30 0 23.284 0 15z" fill="#003874"/><path d="M15.323 4.817l4.052-1.34.02 21.905-4.087 1.37.015-21.935z" fill="#EC1C23"/><path d="M17.728 18.477c-1.76 2.122-3.463 4.29-6.65 4.29-4.503 0-6.639-4.353-6.639-7.993 0-3.497 1.67-7.636 6.056-7.636 1.903 0 3.734 1.163 4.826 2.394l-.003 2.968c-.912-.613-2.956-1.216-4.289-1.238-2.782-.046-5.234 1.16-5.192 3.905.03 1.89 1.902 3.175 3.766 3.175 2.854 0 4.583-2.607 6.027-4.586.404-.517 1.54-2.036 1.718-2.28 1.605-2.243 3.462-4.29 6.65-4.29 3.755 0 5.863 3.027 6.46 6.142h-1.693c-.681-1.01-1.993-1.628-3.286-1.628-2.95 0-4.714 2.714-6.188 4.712 0 0-1.148 1.565-1.563 2.065zm12.829-1.967c-.38 3.134-2.138 6.299-5.976 6.305-2.24.004-3.99-1.53-5.203-3.407v-2.174c1.516.753 2.934 1.561 4.655 1.586 2.118.031 4.034-.783 4.826-2.31" fill="#fff"/></svg>