<svg width="79" height="34" fill="none" xmlns="http://www.w3.org/2000/svg"><path d="M59.345 7.365c0 .157.141.235.172.407.125.595.329 1.174.517 1.738.235.689.516 1.346.72 2.05.11.345.234.69.532.971h1.502V9.494c0-.266-.078-.548.141-.798.078-.078.063-.36-.016-.438-.156-.157-.14-.33-.125-.501.078-1.362-.188-2.724.157-4.086.094-.36-.188-.658-.172-1.033.015-.345.344-.642.125-1.002h-1.722c.22 1.612-.188 3.162-.11 4.743 0 .016-.03.031-.078.078-.11-.375-.313-.673-.422-1.064-.078-.313-.032-.658-.172-.94-.125-.266-.266-.516-.282-.83-.031-.297-.266-.547-.344-.876a6.32 6.32 0 01-.11-.579c0-.047-.047-.078-.063-.078-.203-.094-.39.031-.547-.094-.032-.094.172-.11.078-.235h-.61c-.047.078-.125.22-.204.36-.344.125-.547-.266-.86-.204v2.99c0 .173.046.408-.032.533-.235.313-.188.689-.094.955.188.532.094 1.064.126 1.58.015.251 0 .517 0 .815h1.017c-.345.235-.642.344-.986.297v3.429c.313-.141.344.297.61.328.25-.25.58-.125.86-.172.08-.078.142-.14.22-.219v-2.035c0-.595.078-1.221-.376-1.738.298-.297.204-.626.22-.955.015-.125-.11-.328.156-.36h.172zm4.085 8.375c.125.173.282.314.391.533.485.986 1.142 1.878 1.69 2.818.58.955 1.237 1.862 1.675 2.911.172.392.407.768.626 1.143.062.58-.188 1.08-.485 1.519-.783 1.127-1.409 2.348-2.144 3.506-.564.877-1.096 1.785-1.644 2.677-.156.266-.297.564-.453.877.172.047.203.266.485.22.422-.314.923-.11 1.392.077.157.063.36.141.423.079.266-.25.61-.141.908-.267.282-.125.657-.03.97-.03.986-.83 1.471-1.958 2.129-2.99.281-.455.453-.987.986-1.284.61.767 1.204 1.502 1.768 2.27.579.767 1.127 1.565 1.659 2.316.407 0 .751-.031 1.095 0 .673.063 1.33-.031 1.972-.188.407-.093.877-.14 1.143-.547a1.458 1.458 0 00-.079-.376c-.14-.345-.47-.532-.672-.814-.564-.799-1.096-1.644-1.675-2.442-.564-.783-1.064-1.582-1.471-2.443-.063-.14-.157-.25-.235-.375-.563-1.002-1.314-1.879-1.847-2.912a13.241 13.241 0 00-.986-1.628 24.465 24.465 0 01-2.144-3.726c-.313-.673-.704-1.315-1.33-1.769-.172.047-.344-.047-.516.079a.702.702 0 01-.72.03c-.345-.203-.767-.171-1.033-.062-.282.11-.548.094-.814.11-.266.015-.516 0-.782 0l-.235.235c-.047.125-.047.281-.047.454zm-19.782 7.358c.125-.297.391-.25.5-.438.095-.172.423-.235.455-.345.078-.219.234-.328.36-.47.156-.171.25-.375.297-.578.157-.83.376-1.66.344-2.536-.015-.423-.14-.815-.36-1.096-.297-.376-.516-.814-.907-1.112-.079-.062-.141-.172-.22-.219-.39-.188-.782-.391-1.173-.548-.376-.156-.736-.438-1.174-.376-.47.063-.892-.172-1.346-.172h-2.723c-.157.188-.438.157-.516.329v2.02c.813 0 1.596.015 2.363-.016.25-.016.47.078.626.188.532.375 1.11.704 1.346 1.362v.391c.031 1.158-.501 1.957-1.565 2.364-.548.219-1.111.407-1.706.391h-1.111c.03.861-.032 1.69.03 2.568.157-.22.173-.407.33-.501.485-.126.97-.016 1.408.156.22.078.423.11.642.141.986.094 1.83.407 2.285 1.362 0 .407.031.798 0 1.19-.11.923-.517 1.518-1.409 1.847-.704.266-1.408.313-2.144.297-.344 0-.72-.062-.939.22-.11.422-.235.814-.188 1.22.047.408 0 .815.016 1.222.673 0 1.268.015 1.878 0 .814-.047 1.628.094 2.441-.125.376-.094.798-.094 1.143-.282.375-.204.814-.172 1.174-.392a4.774 4.774 0 001.643-1.565c.516-.845.72-1.8.814-2.802.047-.532-.266-.986-.172-1.456-.595-1.018-1.3-1.847-2.442-2.239zm13.584-5.714c.11.673.11 11.13 0 11.71-.657.203-1.283-.297-1.925-.094-.187.798-.281 1.597-.36 2.427.298-.032.094.266.22.328 1.095.11 2.175-.047 3.255.141.845.157 1.753.031 2.598.031.407-.626.532-1.048.532-1.8-.25-.282-.392-.595-.282-.97.157-.548.282-1.112.282-1.675.015-2.709 0-5.417 0-8.14 0-.705-.032-1.41.015-2.114.047-.69-.297-1.347-.172-1.973-.219-.282-.563-.282-.688-.579-.501.094-1.002-.016-1.518.14-.454.142-.986.032-1.471.032-.376.329-.767.392-1.237.172a1.665 1.665 0 00-1.205-.11c.094.815-.188 1.66.22 2.459.594.015 1.173.015 1.736.015zm-8.529-2.254c.157.501-.203.955-.14 1.472.062.657-.016 1.314.124 1.972.11.517.126 1.096-.093 1.66-.126.313-.063.72-.016 1.08.047.391-.188.72-.172 1.111.031.861.015 1.722.015 2.583 0 .157-.047.345.032.454.266.36-.016.767.156 1.112.204.407.016.751-.016 1.142-.046.72-.172 1.487.141 2.176-.125.25-.234.47-.36.705.36.313.564.689.501 1.143.188.094.36-.016.485.14.141.157.407.126.501.063.266-.22.532-.14.814-.14 1.268-.016 2.535 0 3.85 0-.031-.971.031-1.895-.047-2.85-.751.125-1.456-.094-2.129.141-.109-.11-.172-.188-.187-.344-.094-.627.188-1.206.172-1.816-.031-1.206 0-2.411-.125-3.617-.141-1.268-.032-2.551-.032-3.835 0-.313-.093-.657.141-.97.063-.095.063-.33-.062-.502-.172-.25-.141-.532.156-.767.642-.047 1.33.11 1.925-.234v-2.145c-.344.11-.689-.11-.986.172-.078.078-.376.078-.438 0-.235-.235-.485-.14-.736-.14-1.017-.017-2.034 0-3.051 0-.094.156-.298.093-.423.234zM36.637 31.77V15.35h-3.459a.118.118 0 00-.062.03.215.215 0 00-.047.063v13.37c0 .985-.11 1.987.219 2.958h3.349zm31.16-24.859c.813 1.848 1.33 3.773 2.034 5.605h1.518c.188-.313.219-.627.219-.955-.016-3.131 0-6.246-.016-9.377 0-.204.078-.407-.047-.564h-1.674v5.166c0 .016-.016.047-.016.063l-.063.062c-.234-.751-.47-1.487-.688-2.223-.188-.626-.517-1.22-.485-1.91 0-.14-.141-.313-.25-.438-.22-.266-.486-.5-.846-.61-.313.25-.673.125-1.174.187-.015-.062-.078-.219-.125-.375-.062.094-.094.11-.094.14v2.192c0 .188.032.376-.094.58-.203.328.11.673.079 1.001-.032.33-.25.642-.047 1.002.156.266.14.627.047.814-.157.282-.11.548-.126.814-.046 1.002.25 1.973.157 2.99-.047.595-.016 1.19-.016 1.785.564.063 1.018-.282 1.518-.125.11-.454.517-.752.329-1.221-.094-.125-.25-.188-.282-.36.032-.172.172-.282.172-.486-.03-.579-.015-1.142-.015-1.722-.016-.704-.016-1.362-.016-2.035zm5.868-5.338c-.078.094-.188.11-.266.157-.877.47-1.393 1.142-1.377 2.207.031 1.878.015 3.757 0 5.636 0 .657.062 1.283.297 1.91.172.438.376.86.798 1.017.376.14.736.58 1.22.188.063-.047.236-.016.36.063.33.187.72.156 1.034.03.203-.078.391-.109.579-.093.407.015.751-.078 1.017-.376.094-.282-.047-.532-.156-.767a.635.635 0 00.156-.798c-.219-.329-.188-.69-.11-.955.173-.564.126-1.112.126-1.66 0-.266.14-.47.156-.579a44.19 44.19 0 01-.579-.673c-.814.36-1.674.094-2.535.22 0 .531.235 1.017.172 1.549h.72l.203.203v1.723c-.266.328-.579.61-1.001.735-.47-.485-.736-1.002-.72-1.69a62.78 62.78 0 000-2.975c0-.313.094-.657-.141-.955-.078-.094-.063-.36.031-.438.188-.188.11-.391.11-.58 0-.672.266-1.173.86-1.518.533.485.924 1.033.877 1.816-.016.172.14.36.204.532.36.267.75.11 1.204.157-.203-.407.204-.25.314-.423-.141-.375.125-.704.156-1.08.031-.391-.188-.72-.203-1.096-.016-.375-.454-.563-.61-.908-.157-.344-.611-.438-.909-.751-.61.25-1.267.156-1.987.172zm-2.88 17.94c.063.063.157.11.204.204.61.94 1.22 1.894 1.815 2.849.094.157.157.329.391.297.267-.454.548-.908.767-1.393.532-1.143 1.174-2.223 2.035-3.146.156-.157.297-.392.25-.705.798-.657 1.237-1.518 1.424-2.583-.547 0-1.017-.031-1.47.016-.423.031-.83-.063-1.284.11-.407.156-.923.046-1.393.046a.767.767 0 00-.579.282 8.51 8.51 0 00-.908 1.19c-.438.673-.83 1.377-1.252 2.098v.735zM42.584 3.076c.031-.517.438-1.112-.282-1.503-1.111.564-1.111.564-1.721 1.66-.126 1.471.11 2.911-.157 4.351-.188 1.034.204 2.083.141 3.131-.031.533.22.955.548 1.331.14.172.297.344.407.47.172 0 .266-.032.328 0 .22.125.423.266.673.015.078-.078.298-.015.454-.031h2.113c.047 0 .094-.031.156-.047.079-.188.282-.235.548-.36-.282-.626-.235-1.315-.219-2.004V7.162c-.97.14-1.878-.329-2.895-.063.516.47.031 1.002.11 1.519h.844c.423.704.157 1.393.016 2.144-.11.25-.485.313-.72.548-.094.345.063.705-.14 1.206-.048-.564-.141-.955-.33-1.347a4.405 4.405 0 01-.484-2.144c0-.517-.016-1.05.015-1.566a2.32 2.32 0 00-.188-1.096 1.898 1.898 0 01-.14-.641c-.016-.705.219-1.378.328-2.067.188-.172.391-.376.595-.58zm6.886-1.08v4.101c-.485.063-.986-.11-1.346.235v1.519c.423-.016.782-.345 1.19-.126l.203.204c-.313 1.503-.125 3.037-.188 4.571.642.344 1.22.517 1.894.11-.094-.204.062-.36.14-.533.11-.235-.203-.344-.156-.563.094-.47-.203-.877-.172-1.346.047-.47.016-.94.016-1.41v-6.81c.093-.093.203-.156.11-.406-.408.047-.862.407-1.253-.016-.156.188-.282.313-.438.47zm15.822 10.676V7.835c0-.188-.078-.438.016-.532.235-.235.156-.501.125-.736-.031-.298.235-.517.172-.798-.016-.079.031-.173 0-.235-.329-.564-.031-1.206-.219-1.785-.203-.595-.031-1.237-.078-1.847-.016-.125.062-.266-.094-.313-.297-.188-.438.219-.72.14-.235-.062-.5-.015-.72-.015v10.943c.5.015.986.015 1.518.015zM38.25 1.902v10.582c.454.126.876.313 1.346.173l.36-.36c0-.204.078-.47-.016-.658-.235-.517-.14-1.049-.14-1.581-.017-2.52-.017-5.057 0-7.577 0-.329-.032-.642-.267-.892-.25-.032-.297.266-.563.328-.188-.015-.438-.015-.72-.015zm9.515 10.66c0-1.377-.047-2.66.016-3.929.062-1.283-.235-2.551-.172-3.835.047-1.002.015-2.02.015-3.021h-1.408c0 1.033.015 2.019 0 3.005-.016 1.002.125 2.004-.157 2.975v4.962c.58-.047 1.096-.313 1.706-.156zm7.356.079c0-1.002-.047-1.973.015-2.928.047-.954-.25-1.878-.172-2.817.047-.548-.016-1.096.016-1.644.031-.564-.298-1.065-.157-1.644h-1.424v2.959c0 .188.078.438-.016.532-.234.266-.156.548-.125.799.032.297-.219.485-.188.798.032.376.141.751.157 1.111 0 .893.078 1.77.219 2.662.235.11.5.235.751.36.25-.25.595-.079.924-.188zm-20.47-1.847c-.314-.72-.126-1.41-.173-2.098.36-.36.094-.689-.078-1.002-.031-.063-.094-.125-.094-.157-.016-.281.172-.438.172-.688-.031-1.581-.015-3.163-.015-4.728l-.22-.22h-.986l-.219.22v6.935c0 .58-.078 1.158.235 1.738h1.377zm22.035-8.986c-.141-.188-.36-.36-.517-.22-.25.204-.485.142-.735.142-.61-.016-1.206.047-1.816-.126-.485-.125-1.033-.03-1.55-.03-.14.124-.343.265-.218.453.219.344.078.736.188 1.112h3.677c.345 0 .705.03.97-.25V1.807zm-11.269 3.13V3.53c0-.125.032-.25-.046-.376-.36-.595-.642-1.268-1.284-1.58h-.72c-.203.156-.344.265-.453.36v.97c.156.156.297.313.453.454.329.297.517.657.486 1.127-.032.282 0 .548 0 .892.469-.203.813.298 1.299.016.203-.016.046-.36.265-.454zm-12.363 7.578c.266 0 .548 0 .83.031.218.016.422 0 .657.11.25.125.657.14.892.015.328-.172.641-.094.954-.125.235-.016.454 0 .673 0 .126-.485.345-.924.157-1.409h-4.053a.119.119 0 00-.063.031.215.215 0 00-.047.063v1.284zM15.055.008h17.842c-.204.375-.58.547-.893.782-.579.439-1.08.94-1.721 1.315-.344.204-.61.517-.924.767-.75.58-1.47 1.19-2.237 1.77-.673.5-1.252 1.095-1.925 1.58-.861.627-1.628 1.394-2.551 1.957-.313.188-.58.486-.877.72-1.033.83-2.081 1.66-3.114 2.49-.626.5-1.268.986-1.956 1.596 1.596.047 3.114-.015 4.648.032-.063.39-.329.563-.532.704-.564.391-1.033.892-1.581 1.284-.517.36-.923.845-1.456 1.19-.375.25-.688.594-1.032.892-.407.344-.83.689-1.237 1.017-.767.61-1.455 1.3-2.269 1.848-.36.234-.61.595-.986.845-.391.25-.642.689-1.08.986h5.306c0 .36-.22.517-.423.626-.939.548-1.784 1.253-2.66 1.895-.846.641-1.738 1.22-2.598 1.831-1.033.72-2.113 1.362-3.1 2.145-.594.47-1.251.877-1.893 1.268-.688.423-1.33.94-1.987 1.409-.767.548-1.565 1.049-2.317 1.597-.234.172-.407.454-.735.47H0c.986-1.692 2.144-3.179 3.208-4.729 1.08-1.565 2.113-3.162 3.365-4.727-.595-.079-1.064-.25-1.612-.235-.5.016-.97.094-1.518.172.22-.657.61-1.096.939-1.565.814-1.127 1.628-2.239 2.441-3.366.767-1.065 1.503-2.176 2.348-3.194.313-.375.579-.798.892-1.252H6.51c-.062-.204-.062-.329 0-.485.439-.94 1.049-1.754 1.565-2.63.47-.799 1.033-1.55 1.487-2.364.329-.595.751-1.143 1.111-1.722.517-.83 1.049-1.644 1.565-2.49.689-1.126 1.346-2.27 2.113-3.35.25-.36.391-.782.704-1.08z" fill="#3D4656"/><path d="M63.43 15.74v-.47l.235-.234c.25 0 .516.016.782 0s.532 0 .814-.11c.282-.11.689-.14 1.033.063a.64.64 0 00.72-.031c.172-.125.344-.031.516-.079.626.455 1.017 1.096 1.33 1.77a24.466 24.466 0 002.144 3.725c.36.517.705 1.065.986 1.628.532 1.034 1.284 1.91 1.847 2.912.078.125.172.235.235.376.407.86.923 1.66 1.471 2.442.579.798 1.095 1.628 1.674 2.442.204.282.533.47.674.814.046.125.062.235.078.376-.25.407-.736.454-1.143.548-.641.14-1.299.235-1.972.188-.328-.032-.673 0-1.095 0-.532-.752-1.08-1.55-1.659-2.317-.563-.767-1.158-1.503-1.768-2.27-.533.297-.705.845-.986 1.284-.658 1.017-1.143 2.16-2.129 2.99-.297 0-.689-.094-.97.03-.297.142-.657.017-.908.267-.063.063-.266-.016-.422-.078-.47-.188-.986-.392-1.393-.079-.298.047-.313-.172-.485-.219.156-.313.281-.61.453-.876.548-.893 1.08-1.8 1.644-2.677.735-1.159 1.361-2.38 2.144-3.507.297-.438.563-.94.485-1.518-.204-.376-.454-.752-.626-1.143-.438-1.034-1.111-1.941-1.675-2.912-.563-.94-1.22-1.832-1.69-2.818-.063-.203-.219-.344-.344-.517zm-19.782 7.358c1.142.392 1.831 1.221 2.394 2.223-.093.47.22.94.173 1.456-.094.986-.298 1.957-.814 2.802a4.385 4.385 0 01-1.643 1.566c-.36.203-.799.172-1.174.391-.344.188-.767.172-1.143.282-.813.219-1.627.078-2.441.125-.595.031-1.205 0-1.878 0-.031-.407.016-.814-.016-1.221-.047-.423.094-.798.188-1.221.235-.282.595-.235.94-.22.735.016 1.439-.046 2.143-.297.908-.328 1.3-.923 1.409-1.847.047-.391 0-.783 0-1.19-.454-.97-1.3-1.283-2.285-1.362a1.897 1.897 0 01-.642-.14c-.438-.157-.923-.282-1.408-.141-.157.094-.172.297-.329.5-.063-.892-.016-1.706-.031-2.567h1.11c.611.016 1.175-.188 1.707-.391 1.064-.423 1.596-1.221 1.565-2.364v-.391c-.25-.658-.83-.987-1.346-1.362a.993.993 0 00-.626-.188c-.783.031-1.565.015-2.363.015v-2.019c.078-.172.36-.14.516-.329h2.723c.454 0 .877.235 1.346.172.423-.046.783.22 1.174.376.407.172.798.36 1.174.548.093.047.14.157.219.22.391.297.61.75.907 1.11.22.282.345.674.36 1.096.032.877-.172 1.691-.344 2.537-.047.203-.125.422-.297.579-.141.14-.282.25-.36.47-.031.109-.36.172-.454.344-.063.188-.329.14-.454.438zm13.584-5.714h-1.737c-.407-.798-.125-1.643-.219-2.457a1.64 1.64 0 011.205.11c.47.234.845.171 1.236-.173.486 0 1.018.11 1.472-.032.516-.172 1.001-.046 1.518-.14.125.313.485.297.688.579-.125.626.204 1.268.172 1.972-.047.705-.015 1.41-.015 2.114v8.14c0 .564-.125 1.127-.282 1.675-.11.36.031.689.282.97 0 .752-.11 1.175-.532 1.801-.845 0-1.738.125-2.598-.031-1.08-.188-2.16-.031-3.255-.141-.126-.063.062-.345-.22-.329.079-.845.173-1.628.36-2.426.642-.204 1.268.297 1.925.094.11-.595.126-11.053 0-11.726zm-8.529-2.254c.125-.141.329-.078.407-.25h3.052c.25 0 .5-.095.735.14.078.079.36.079.439 0 .297-.281.641-.062.985-.172v2.145c-.594.344-1.283.188-1.924.235-.298.234-.313.5-.157.767.125.172.125.407.063.5-.235.314-.126.642-.141.971-.016 1.284-.11 2.568.031 3.836.125 1.205.094 2.41.125 3.616.016.61-.25 1.19-.172 1.816.016.14.078.235.188.344.673-.235 1.377-.015 2.128-.14.078.954.016 1.878.047 2.849h-3.85c-.266 0-.547-.079-.813.14-.094.079-.36.11-.501-.062-.126-.141-.298-.032-.486-.141.079-.454-.125-.83-.5-1.143.125-.235.234-.454.36-.704-.313-.69-.204-1.44-.141-2.176.031-.392.219-.736.015-1.143-.172-.345.11-.752-.156-1.112-.078-.094-.031-.297-.031-.454 0-.86.015-1.722-.016-2.583-.016-.391.235-.72.172-1.111-.047-.36-.11-.767.016-1.08a2.766 2.766 0 00.094-1.66c-.141-.673-.063-1.315-.125-1.972-.047-.501.297-.955.156-1.456zM36.637 31.77h-3.35c-.328-.97-.218-1.972-.218-2.958-.016-4.462 0-8.907 0-13.369.015-.016.03-.047.047-.063a.119.119 0 01.062-.03h3.459v16.42zM67.796 6.911v2.004c0 .58-.016 1.143.016 1.722.015.204-.125.313-.172.485.015.172.187.235.281.36.188.47-.219.783-.328 1.221-.501-.156-.955.188-1.518.126 0-.595-.032-1.19.015-1.785.078-1.002-.203-1.988-.156-2.99.015-.266-.031-.532.125-.814.11-.204.11-.548-.047-.814-.203-.36.016-.658.047-1.002.031-.329-.282-.673-.078-1.002.125-.203.094-.391.094-.58.015-.735 0-1.455 0-2.19 0-.016.03-.048.093-.142.047.157.11.313.126.376.5-.063.86.078 1.174-.188.344.11.61.329.845.61.11.126.25.298.25.44-.031.688.297 1.283.485 1.909.235.736.454 1.471.689 2.223l.062-.063c.016-.015.016-.047.016-.062V1.589h1.675c.125.156.047.375.047.563 0 3.131 0 6.246.015 9.377 0 .33-.016.642-.219.955h-1.518c-.673-1.8-1.205-3.726-2.019-5.573zm-8.607.454c-.267.032-.141.235-.157.36-.031.329.063.658-.219.955.454.532.376 1.143.376 1.738v2.035l-.22.22c-.297.046-.61-.08-.86.171-.282-.031-.298-.454-.61-.328V9.087c.344.047.641-.062.985-.297h-1.017c0-.313.016-.564 0-.814-.031-.533.063-1.05-.125-1.581-.094-.266-.141-.642.094-.955.094-.126.031-.345.031-.533v-2.99c.297-.062.517.314.86.204.08-.141.157-.266.204-.36h.61c.095.14-.109.14-.078.235.157.125.345 0 .548.094 0 0 .047.03.063.078.031.188.062.391.11.58.078.312.328.563.344.876.03.313.156.563.281.83.141.281.079.626.172.939.094.375.313.689.423 1.064.047-.047.078-.062.078-.078-.078-1.565.345-3.13.11-4.743h1.721c.204.36-.11.657-.125 1.002-.015.375.266.673.172 1.033-.328 1.346-.078 2.724-.156 4.086-.016.172-.032.344.125.5.078.079.094.36.016.439-.22.25-.141.532-.141.798-.016 1.002 0 2.02 0 3.037H61.3c-.281-.266-.422-.626-.532-.97-.203-.69-.485-1.362-.72-2.051-.187-.564-.39-1.143-.516-1.738-.031-.156-.172-.25-.172-.407-.031-.673.062-1.362-.047-2.035-.141 0-.204 0-.266.063-.047.516.11 1.064-.172 1.565.11.047.219.094.313.141v.266zm14.476-5.792c.72-.016 1.377.078 1.987-.203.298.328.752.407.908.75.157.361.58.549.61.909.016.376.235.704.204 1.096-.031.375-.297.72-.156 1.08-.11.172-.517.016-.314.423-.453-.047-.845.11-1.205-.157-.078-.172-.219-.36-.203-.532.047-.783-.329-1.33-.876-1.816-.595.329-.861.845-.861 1.518 0 .188.062.392-.11.58-.078.078-.094.344-.031.438.235.313.14.642.14.955.017.986.032 1.988 0 2.974-.03.689.251 1.206.72 1.69.439-.109.736-.406 1.002-.735V8.821l-.203-.203h-.72c.063-.548-.172-1.034-.172-1.55.86-.141 1.721.14 2.535-.22.188.22.344.408.58.674-.016.125-.173.329-.157.579.015.548.062 1.111-.126 1.66-.078.266-.11.626.11.954.11.172.14.564-.156.799.11.235.25.485.156.767-.282.297-.626.407-1.017.375a1.289 1.289 0 00-.58.094c-.312.126-.704.141-1.032-.03-.125-.08-.297-.11-.36-.064-.485.392-.845-.046-1.22-.187-.423-.157-.627-.58-.799-1.018-.25-.626-.297-1.252-.297-1.91.015-1.878.03-3.757 0-5.635-.016-1.065.5-1.738 1.377-2.208a.352.352 0 00.266-.125zm-2.88 17.94v-.767c.423-.72.83-1.424 1.252-2.098a9.56 9.56 0 01.908-1.19c.14-.14.344-.281.58-.281.469 0 .985.11 1.392-.047.438-.157.86-.078 1.283-.11.47-.03.94-.015 1.471-.015-.187 1.064-.641 1.925-1.424 2.583.047.297-.094.548-.25.704-.86.94-1.503 2.004-2.035 3.147-.219.485-.5.94-.767 1.393-.234.016-.297-.14-.39-.297-.596-.955-1.206-1.895-1.816-2.85-.047-.046-.157-.11-.204-.172zM42.584 3.076l-.595.595c-.11.704-.344 1.362-.328 2.066 0 .22.03.423.14.642.141.329.204.705.188 1.096-.031.517 0 1.049-.015 1.565-.016.752.14 1.488.485 2.145.203.376.281.767.328 1.346.204-.5.047-.86.141-1.205.22-.235.595-.282.72-.548.14-.751.407-1.44-.016-2.145h-.845c-.078-.516.407-1.033-.11-1.518 1.018-.266 1.926.203 2.896.062v2.928c0 .689-.047 1.362.22 2.004-.267.125-.47.188-.549.36-.078.015-.125.047-.156.047h-2.113c-.156 0-.376-.063-.454.031-.25.25-.454.11-.673-.016-.062-.031-.156 0-.328 0-.11-.125-.266-.297-.407-.47-.329-.39-.58-.798-.548-1.33.063-1.049-.329-2.098-.14-3.13.265-1.441.046-2.881.156-4.353.61-1.08.61-1.08 1.721-1.66.72.376.313.971.282 1.488zm6.886-1.08l.454-.454c.391.407.845.062 1.252.015.094.25-.016.33-.11.407v6.81c0 .47.031.94-.016 1.41-.046.469.267.876.173 1.345-.047.22.266.33.156.564-.078.172-.235.329-.14.532-.674.407-1.253.235-1.894-.11.062-1.534-.141-3.068.188-4.57l-.204-.204c-.407-.22-.767.11-1.19.125V6.348c.36-.36.861-.172 1.346-.235-.015-1.393-.015-2.771-.015-4.117zm15.822 10.676h-1.534V1.73c.22 0 .486-.047.72.015.282.063.439-.329.72-.14.141.062.078.203.094.312.047.611-.11 1.253.078 1.848.188.579-.094 1.22.22 1.784.03.063-.016.157 0 .235.062.282-.204.501-.173.799.032.234.11.5-.125.735-.094.094-.016.345-.016.533.016 1.58.016 3.162.016 4.821zM38.249 1.902h.72c.266-.063.313-.36.563-.329.235.25.266.564.266.892 0 2.52-.016 5.057 0 7.577 0 .532-.094 1.065.141 1.581.078.188.016.454.016.658l-.36.36c-.454.14-.877-.047-1.346-.172V1.902zm9.515 10.661c-.61-.141-1.127.125-1.722.156V7.757c.282-.987.126-1.989.157-2.975.016-.986 0-1.972 0-3.006h1.409c0 1.002.03 2.02-.016 3.022-.063 1.284.235 2.552.172 3.835-.047 1.268 0 2.536 0 3.93zm7.356.077c-.329.095-.673-.077-.924.204-.266-.125-.516-.25-.75-.36a16.819 16.819 0 01-.22-2.661c0-.36-.125-.736-.157-1.111-.03-.298.22-.501.188-.799-.031-.25-.11-.548.126-.798.093-.094.015-.345.015-.532v-2.96h1.424c-.14.564.188 1.08.157 1.645-.032.547.031 1.095-.016 1.643-.078.955.235 1.863.172 2.818-.047.955-.015 1.91-.015 2.912zm-20.47-1.846h-1.347c-.297-.564-.234-1.159-.234-1.738V2.12l.219-.22h.986l.219.22c0 1.565-.016 3.146.015 4.728 0 .25-.203.407-.172.688 0 .032.047.079.094.157.172.329.438.642.078 1.002.016.673-.172 1.377.141 2.098zm22.035-8.986v1.08c-.266.282-.626.25-.97.25h-3.679c-.093-.375.047-.767-.187-1.11-.11-.173.094-.33.219-.455.516 0 1.064-.11 1.55.031.61.157 1.204.11 1.815.126.234 0 .485.078.735-.141.157-.141.376.031.517.219z" fill="#3D4656"/><path d="M45.416 4.939c-.219.094-.062.438-.265.454-.486.282-.83-.204-1.3-.016 0-.329-.015-.61 0-.892.047-.47-.14-.83-.485-1.127-.156-.141-.297-.298-.453-.454v-.97c.11-.08.25-.189.453-.361h.72c.642.313.908.986 1.284 1.581.078.125.03.25.047.376.015.485 0 .94 0 1.409zm-12.363 7.577v-1.3c.016-.015.031-.047.047-.062a.12.12 0 01.063-.032h4.053c.188.486-.031.924-.157 1.41-.219 0-.453-.016-.673 0-.313.03-.626-.048-.954.124-.235.126-.642.094-.892-.015-.235-.11-.438-.094-.658-.11-.281-.015-.547-.015-.829-.015zm26.136-5.151V7.13c-.11-.047-.204-.093-.313-.14.281-.501.11-1.05.172-1.566.047-.078.125-.078.266-.063.11.674.015 1.347.047 2.036-.063-.032-.11-.032-.172-.032z" fill="#3D4656"/></svg>