<svg width="160" height="85" fill="none" xmlns="http://www.w3.org/2000/svg"><path d="M88.474 22.67H71.555v30.384h16.92V22.67z" fill="#FF5A00"/><path d="M72.682 37.862c0-6.173 2.903-11.652 7.358-15.192a19.235 19.235 0 00-11.926-4.134c-10.687 0-19.334 8.644-19.334 19.326 0 10.683 8.648 19.326 19.334 19.326 4.511 0 8.647-1.557 11.926-4.134-4.461-3.49-7.358-9.019-7.358-15.192z" fill="#EB001B"/><path d="M111.299 37.862c0 10.683-8.647 19.326-19.334 19.326a19.235 19.235 0 01-11.925-4.134c4.511-3.546 7.358-9.019 7.358-15.192S84.495 26.21 80.04 22.67a19.204 19.204 0 0111.92-4.134c10.692 0 19.339 8.7 19.339 19.326z" fill="#F79E1B"/><path d="M60.112 66.964v-3.221c0-1.232-.751-2.039-2.04-2.039-.644 0-1.345.213-1.827.913-.375-.588-.913-.913-1.72-.913-.539 0-1.077.163-1.502.75v-.644h-1.127v5.154h1.127v-2.846c0-.913.481-1.344 1.232-1.344s1.127.481 1.127 1.344v2.846h1.126v-2.846c0-.913.538-1.344 1.232-1.344.751 0 1.127.481 1.127 1.344v2.846h1.245zm16.706-5.154H74.99v-1.557h-1.127v1.557h-1.02v1.02h1.02v2.364c0 1.182.482 1.876 1.771 1.876.482 0 1.02-.162 1.395-.375l-.325-.97c-.325.213-.7.27-.97.27-.538 0-.75-.326-.75-.857V62.83h1.826v-1.02h.007zm9.56-.112c-.644 0-1.076.325-1.345.75v-.644h-1.126v5.154h1.126v-2.902c0-.857.375-1.345 1.076-1.345.213 0 .482.056.7.106l.326-1.075c-.225-.044-.544-.044-.757-.044zm-14.447.538c-.538-.375-1.289-.538-2.096-.538-1.289 0-2.146.644-2.146 1.663 0 .857.644 1.345 1.77 1.502l.539.056c.588.106.913.269.913.538 0 .375-.432.644-1.182.644a2.97 2.97 0 01-1.721-.538l-.538.857c.588.431 1.395.644 2.202.644 1.502 0 2.365-.7 2.365-1.663 0-.914-.7-1.395-1.77-1.558l-.538-.056c-.482-.056-.858-.163-.858-.482 0-.375.376-.588.97-.588.645 0 1.29.27 1.615.432l.475-.913zm29.964-.538c-.644 0-1.076.325-1.345.75v-.644h-1.126v5.154h1.126v-2.902c0-.857.375-1.345 1.076-1.345.213 0 .482.056.701.106l.325-1.063c-.219-.056-.538-.056-.757-.056zm-14.39 2.69c0 1.557 1.076 2.682 2.74 2.682.75 0 1.289-.162 1.827-.587l-.538-.914c-.432.326-.857.482-1.346.482-.913 0-1.557-.644-1.557-1.664 0-.97.644-1.613 1.558-1.663.481 0 .913.162 1.345.481l.538-.913c-.538-.431-1.076-.588-1.827-.588-1.665-.006-2.74 1.126-2.74 2.683zm10.417 0V61.81h-1.126v.645c-.376-.482-.914-.75-1.615-.75-1.451 0-2.577 1.125-2.577 2.682 0 1.558 1.126 2.683 2.578 2.683.75 0 1.288-.269 1.614-.75v.644h1.126v-2.577zm-4.136 0c0-.914.588-1.664 1.558-1.664.914 0 1.558.7 1.558 1.663 0 .913-.644 1.664-1.558 1.664-.963-.056-1.558-.757-1.558-1.664zm-13.477-2.69c-1.502 0-2.578 1.076-2.578 2.683 0 1.614 1.076 2.683 2.634 2.683.751 0 1.502-.212 2.096-.7l-.538-.807c-.431.325-.97.538-1.501.538-.701 0-1.396-.326-1.558-1.232h3.81v-.432c.05-1.657-.92-2.733-2.365-2.733zm0 .97c.7 0 1.183.43 1.289 1.231h-2.684c.106-.694.588-1.232 1.395-1.232zm27.981 1.72V59.77h-1.127v2.684c-.375-.482-.913-.75-1.614-.75-1.451 0-2.578 1.125-2.578 2.682 0 1.558 1.127 2.683 2.578 2.683.751 0 1.289-.269 1.614-.75v.644h1.127v-2.577zm-4.136 0c0-.914.588-1.664 1.558-1.664.913 0 1.558.7 1.558 1.663 0 .913-.645 1.664-1.558 1.664-.97-.056-1.558-.757-1.558-1.664zm-37.704 0V61.81h-1.126v.645c-.376-.482-.914-.75-1.614-.75-1.452 0-2.578 1.125-2.578 2.682 0 1.558 1.126 2.683 2.578 2.683.75 0 1.288-.269 1.614-.75v.644h1.126v-2.577zm-4.186 0c0-.914.588-1.664 1.558-1.664.914 0 1.558.7 1.558 1.663 0 .913-.644 1.664-1.558 1.664-.97-.056-1.558-.757-1.558-1.664z" fill="#000"/></svg>