<svg width="44" height="34" fill="none" xmlns="http://www.w3.org/2000/svg"><path d="M27.807 2.896H15.955v21.285h11.852V2.896z" fill="#FF5A00"/><path d="M16.744 13.539c0-4.325 2.034-8.163 5.154-10.643A13.475 13.475 0 0013.544 0C6.058 0 0 6.055 0 13.539c0 7.483 6.058 13.538 13.544 13.538 3.16 0 6.058-1.09 8.354-2.896a13.51 13.51 0 01-5.154-10.642z" fill="#EB001B"/><path d="M43.797 13.539c0 7.483-6.058 13.538-13.544 13.538-3.16 0-6.058-1.09-8.355-2.896a13.463 13.463 0 005.155-10.642c0-4.325-2.034-8.163-5.155-10.643A13.453 13.453 0 0130.248 0c7.49 0 13.549 6.095 13.549 13.539z" fill="#F79E1B"/><path d="M7.938 33.925V31.67c0-.863-.526-1.428-1.429-1.428-.451 0-.942.149-1.28.64-.263-.413-.64-.64-1.205-.64-.377 0-.754.114-1.052.525v-.45h-.79v3.61h.79v-1.994c0-.64.337-.942.863-.942s.79.337.79.942v1.993h.788v-1.993c0-.64.377-.942.864-.942.526 0 .789.337.789.942v1.993h.872zm11.703-3.61h-1.28v-1.09h-.789v1.09h-.714v.714h.714v1.656c0 .828.338 1.315 1.24 1.315.338 0 .715-.114.978-.263l-.228-.68c-.228.15-.49.19-.68.19-.376 0-.525-.229-.525-.601v-1.617h1.28v-.714h.004zm6.698-.079a1.07 1.07 0 00-.943.526v-.451h-.789v3.61h.79v-2.033c0-.6.262-.942.753-.942.149 0 .338.04.49.074l.229-.753c-.158-.03-.381-.03-.53-.03zm-10.121.377c-.377-.263-.903-.377-1.469-.377-.902 0-1.503.451-1.503 1.166 0 .6.451.942 1.24 1.051l.377.04c.412.074.64.188.64.377 0 .262-.302.45-.828.45a2.08 2.08 0 01-1.206-.376l-.376.6c.412.303.977.452 1.542.452 1.052 0 1.657-.491 1.657-1.166 0-.64-.49-.977-1.24-1.091l-.377-.04c-.338-.039-.6-.113-.6-.337 0-.263.262-.412.679-.412.451 0 .903.189 1.13.303l.334-.64zm20.99-.377a1.07 1.07 0 00-.942.526v-.451h-.789v3.61h.79v-2.033c0-.6.262-.942.753-.942.15 0 .338.04.491.074l.228-.744c-.153-.04-.377-.04-.53-.04zm-10.08 1.884c0 1.091.753 1.88 1.92 1.88.525 0 .902-.114 1.28-.412l-.378-.64c-.302.228-.6.338-.942.338-.64 0-1.092-.452-1.092-1.166 0-.679.452-1.13 1.092-1.165.337 0 .64.114.942.337l.377-.64c-.377-.302-.754-.411-1.28-.411-1.166-.005-1.92.788-1.92 1.88zm7.297 0v-1.805h-.789v.451c-.263-.337-.64-.525-1.13-.525-1.017 0-1.806.788-1.806 1.88 0 1.09.789 1.879 1.806 1.879.526 0 .902-.188 1.13-.526v.451h.79V32.12zm-2.897 0c0-.64.412-1.165 1.092-1.165.64 0 1.091.49 1.091 1.165 0 .64-.451 1.166-1.091 1.166-.675-.04-1.092-.53-1.092-1.166zm-9.441-1.884c-1.052 0-1.806.754-1.806 1.88 0 1.13.754 1.88 1.845 1.88.526 0 1.052-.15 1.469-.491l-.377-.565c-.303.227-.68.376-1.052.376-.491 0-.978-.227-1.092-.863h2.67v-.302c.035-1.161-.645-1.915-1.657-1.915zm0 .68c.49 0 .828.302.903.863h-1.88c.074-.487.411-.864.977-.864zm19.601 1.204v-3.233H40.9v1.88c-.263-.338-.64-.526-1.13-.526-1.017 0-1.806.788-1.806 1.88 0 1.09.789 1.879 1.806 1.879.526 0 .902-.188 1.13-.526v.451h.79V32.12zm-2.897 0c0-.64.412-1.165 1.092-1.165.64 0 1.09.49 1.09 1.165 0 .64-.45 1.166-1.09 1.166-.68-.04-1.092-.53-1.092-1.166zm-26.413 0v-1.805h-.789v.451c-.263-.337-.64-.525-1.13-.525-1.018 0-1.807.788-1.807 1.88 0 1.09.79 1.879 1.806 1.879.526 0 .903-.188 1.131-.526v.451h.79V32.12zm-2.932 0c0-.64.412-1.165 1.091-1.165.64 0 1.092.49 1.092 1.165 0 .64-.452 1.166-1.092 1.166-.68-.04-1.091-.53-1.091-1.166z" fill="#fff"/></svg>