<svg width="72" height="26" fill="none" xmlns="http://www.w3.org/2000/svg"><path d="M37.648 0h-.694v25.243h.694v-4.857h9.282v-2.95h-7.113v-3.383h6.072v-2.95h-6.072V7.808h7.113v-2.95h-9.282V0zm-28.8 14.4l-2.602-4.25-3.383-5.205v-.087H0v15.528h3.123v-9.542l2.342 3.73 3.73 5.812h2.776V4.858H8.848V14.4zm4.858 5.986h10.236v-2.95H16.83v-3.383h6.07v-2.95h-6.07V7.808h7.113v-2.95H13.706v15.529zM25.243 7.807H28.8v12.579h3.123V7.807h3.557v-2.95H25.242v2.95zM57.34 14.4l-2.603-4.25-3.383-5.205h-2.862v15.527h3.123V10.93l2.342 3.73 3.73 5.812h2.776V4.858H57.34V14.4zm4.424-9.542v2.95h3.556v12.578h3.123V7.894H72V4.858H61.764z" fill="#3D4656"/></svg>