<svg width="102" height="30" fill="none" xmlns="http://www.w3.org/2000/svg"><path fill-rule="evenodd" clip-rule="evenodd" d="M7.37 9.904L17.154 0l9.784 9.904-9.784 9.904L7.37 9.904zm9.776-6.24l-6.24 6.24 6.24 6.24 6.239-6.24-6.24-6.24zm.008 1.853l-4.387 4.387 4.387 4.386 4.386-4.386-4.386-4.387zm.946 5.341a4.85 4.85 0 00-.954 1.452 3.872 3.872 0 00-.842-1.332 3.585 3.585 0 00-1.572-1.082 4.311 4.311 0 001.451-.955c.417-.409.746-.906.955-1.451.216.545.545 1.034.954 1.451.417.41.914.738 1.452.955a3.398 3.398 0 00-1.444.962zM7.482 14.025L0 21.588l7.482 7.602 7.498-7.578-7.498-7.587zm-4.988 7.563L7.482 16.6l4.996 4.988-4.996 4.996-4.988-4.996zm24.323-7.563l-7.498 7.579 7.498 7.578 7.482-7.578-7.482-7.579zm-5.004 7.563l4.996-4.988 4.988 4.988-4.988 4.996-4.996-4.996zm5.004-3.136l-3.143 3.136 3.143 3.143 3.136-3.143-3.136-3.136zm.738 3.881a3.673 3.673 0 00-.738 1.107 3.06 3.06 0 00-.65-1.026 2.864 2.864 0 00-1.202-.834c.417-.16.794-.417 1.106-.738.321-.313.578-.69.746-1.107.169.417.425.794.738 1.107.313.32.69.57 1.107.738a2.58 2.58 0 00-1.107.753zm-23.208-.745l3.135-3.136 3.144 3.136-3.144 3.143-3.135-3.143zm3.135 1.852c.185-.409.433-.786.746-1.107a2.54 2.54 0 011.107-.745 3.229 3.229 0 01-1.107-.738 3.37 3.37 0 01-.746-1.107 3.333 3.333 0 01-1.844 1.845 3.322 3.322 0 011.844 1.852zm15.253 5.887l-5.581-5.654-5.59 5.654h11.171z" fill="#3D4656"/><path d="M87.99 22.226h-.974v3.253h-.501v-3.253h-.974v-.42H88l-.01.42zm-7.165 3.253h.52v-2.738l3.096 2.884v-3.82h-.511v2.713l-3.106-2.884v3.845zm-1.399 0h-2.218v-3.674h2.218v.421H77.73v1.021h1.659v.421h-1.66v1.39h1.698v.421zm-5.98.069l1.245-2.498.482 2.43h.53l-.839-3.829-1.427 2.884-1.418-2.884-.839 3.828h.53l.483-2.429 1.254 2.498zm-6.587-.069h-.501v-3.845l3.096 2.884v-2.713h.52v3.82l-3.115-2.892v2.746zm-1.842-3.674h-.501v3.674h.501v-3.674zm-3.568.85l-.733 1.485h1.475l-.742-1.485zm1.408 2.824l-.473-.918h-1.89l-.473.918h-.55l1.968-3.828 1.968 3.828h-.55zM57.6 22.226h.974v-.42h-2.47v.42h.975v3.253h.52v-3.253zm-4.205 0h-.164v1.33h.164c.53 0 1.147-.094 1.147-.678 0-.583-.665-.66-1.186-.66l.039.008zm1.61.635c.01.515-.414.953-.993 1.022l1.302 1.596h-.617l-1.216-1.553h-.24v1.553h-.521v-3.674h.617c.376-.025.752.026 1.09.164.337.188.55.523.54.884l.038.008zm-6.095 2.627h2.218v-.42h-1.697v-1.4h1.64v-.42h-1.64v-1.022h1.697v-.42H48.91v3.682zm-1.148-3.253h-.974v3.253h-.52v-3.253h-1.08v-.421h2.468l.106.42zM37 25.488h2.209v-.42H37.51v-1.4h1.659v-.42H37.51v-1.022h1.698v-.42H37v3.682zm3.569 0h.52V22.75l3.096 2.884v-3.82h-.52v2.712l-3.096-2.884v3.846zM102 16.228h-5.291V6.118H102v1.178h-4.075v2.829h3.949v1.177h-3.949v3.818H102v1.108zm-13.102.208l2.954-6.885 1.15 6.677h1.264L92.277 5.743l-3.38 7.963-3.379-7.963L83.5 16.278h1.265l1.15-6.677 2.983 6.835zm-11.51-7.983l-1.757 4.076h3.457l-1.7-4.076zm3.38 7.775l-1.15-2.532H75.1l-1.149 2.532h-1.226l4.712-10.535 4.692 10.535h-1.361zM67.55 11.134v1.177h2.558c-.193 1.682-1.574 2.968-3.234 2.997-2.144-.109-3.833-1.919-3.833-4.125-.03-2.225 1.709-4.056 3.881-4.095h.058a3.888 3.888 0 013.1 1.652l.859-.85c-1.787-2.256-5.021-2.602-7.223-.763-2.201 1.83-2.539 5.144-.743 7.4a5.085 5.085 0 003.823 1.939c2.54.04 4.635-2.038 4.674-4.64v-.672l-3.92-.02zm-6.914-3.858h-2.298v8.952h-1.236V7.276h-2.297V6.099h5.918l-.087 1.177zm-12.85 8.952h5.29v-1.177h-4.074v-3.818h3.949v-1.187H49v-2.83h4.075V6.04h-5.29v10.19zm-10.786 0h1.236V8.69l7.406 7.944V6.119h-1.236v7.468L37 5.634v10.594z" fill="#3D4656"/></svg>