<svg width="82" height="22" fill="none" xmlns="http://www.w3.org/2000/svg"><path d="M19.524 18.003c-.338 0-.676.169-.845.422-.254.338-.338.761-.254 1.1 0 1.013.338 1.52 1.1 1.52.422 0 .76-.084 1.098-.253v.76a3.392 3.392 0 01-1.268.254c-.592 0-1.099-.169-1.521-.591-.338-.508-.592-1.1-.507-1.69 0-.423.084-.846.253-1.184.17-.338.423-.592.76-.845.339-.17.762-.254 1.1-.254.422 0 .93.085 1.267.338l-.338.76c-.169-.084-.338-.168-.507-.168 0-.085-.169-.17-.338-.17zm13.016 3.719h.93v-4.48h-.93v4.48zm14.791 0h-1.014v-3.72h-1.183v-.76h3.38v.76h-1.183m14.199 1.099l.93-1.859h1.015l-1.522 2.705v1.69h-.93v-1.69l-1.52-2.79h1.013M63.644 5.41h-1.015c-.169 0-.169 0-.253-.17-.085-.422-.17-.845-.338-1.183a2.405 2.405 0 00-2.029-1.521c-.507-.085-1.099 0-1.606.169-.76.253-1.267.76-1.605 1.436a2.25 2.25 0 00-.254 1.015v.084c0 .085-.084.085-.084.085h-2.367c-.085 0-.085-.085-.085-.085 0-.084-.084-.253-.084-.422-.085-.423-.254-.93-.507-1.268-.507-.592-1.268-1.014-2.029-1.014-.338 0-.76 0-1.099.084-.845.17-1.605.845-1.944 1.69-.169.339-.169.592-.253.93 0 .17 0 .17-.254.17h-2.113c-.084 0-.169 0-.169-.17 0-.169 0-.253.085-.422.169-.93.507-1.775 1.014-2.62A5.077 5.077 0 0149.867.085c.422 0 .845-.085 1.268-.085a4.59 4.59 0 012.873 1.014c.423.338.761.676 1.015 1.014l.169.17c0 .084.084.084.084 0l.17-.254c.422-.254.76-.592 1.183-.93A4.59 4.59 0 0159.502 0c.676 0 1.352.085 1.944.254 1.014.338 1.944 1.014 2.536 1.944.507.76.76 1.605.93 2.45 0 .17.084.339.084.508 0 .169 0 .169-.169.169h-.592m-50.12.845h1.099c.169 0 .169 0 .169.17v.59c0 .423.084.846.253 1.269.423 1.183 1.606 2.028 2.874 2.197.591.085 1.183 0 1.775-.084 1.268-.254 2.282-1.268 2.62-2.536.084-.254.084-.592.084-.845v-.676c0-.254 0-.085.085-.085h2.282c.084 0 .084 0 .084.17.085.76 0 1.52-.169 2.197-.169.845-.591 1.605-1.098 2.282-.676.845-1.606 1.521-2.62 1.86-.677.253-1.437.337-2.113.337-.761 0-1.522-.084-2.282-.253-1.775-.423-3.212-1.606-3.888-3.297a7.31 7.31 0 01-.508-1.944V6.34c0-.084 0-.084.085-.084l1.268-.085zm8.959-.76c0-.085-.085-.17-.085-.254a2.922 2.922 0 00-2.028-2.367c-.423-.084-.93-.253-1.352-.253-.677 0-1.268 0-1.86.169-.845.253-1.521.676-1.944 1.437-.253.338-.338.76-.422 1.183 0 .169 0 .169-.17.169h-2.197c-.169 0-.169 0-.169-.17 0-.168.085-.337.085-.506.169-.846.591-1.69 1.098-2.451A5.532 5.532 0 0116.988.338a6.434 6.434 0 011.775-.253c.846-.085 1.606 0 2.451.253 1.015.254 2.029.845 2.705 1.606.592.676 1.099 1.437 1.352 2.367.085.253.17.591.17.845v.253c0 .085 0 .17-.17.17l-2.197-.17zM2.705.085h2.113c.422 0 .93.084 1.352.169.845.169 1.606.591 2.282 1.098.93.761 1.521 1.775 1.69 2.874.085.254.085.507.085.845v.17c0 .168 0 .168-.17.168H7.86c-.084 0-.084 0-.084-.084 0-.17 0-.423-.085-.592a2.963 2.963 0 00-.507-1.183c-.422-.507-1.014-.845-1.606-1.014H2.62c-.084 0-.084 0-.084.084v2.536c0 .253 0 .253-.254.253H.085S0 5.41 0 5.325V.338C0 0 0 0 .338 0l2.367.085zm29.582 12.847h-3.804c-.084 0-.084 0-.084-.085V6.424c0-.338 0-.338.338-.338h2.113c.084 0 .084 0 .084.084v3.804c0 .338 0 .338.338.338h4.649c.338 0 .338 0 .338.338v2.113c0 .084 0 .084-.084.084l-3.888.085zM77.674 0h4.141c.085 0 .085 0 .085.085v2.367c0 .084 0 .084-.085.084H79.28c-.254 0-.254 0-.254.253v2.536c0 .084 0 .169-.169.169h-2.282c-.084 0-.084 0-.084-.085V2.79c0-.169 0-.169-.17-.169h-2.366c-.507-.084-.422 0-.422-.507V.085s0-.085.084-.085h4.057zm-9.635 9.55V6.34c0-.254 0-.254.253-.254h2.198c.084 0 .084 0 .084.084v6.508c0 .254 0 .254-.253.254h-2.198c-.084 0-.169 0-.169-.17v-.253l.085-2.958zm-5.579 0V6.424c0-.253 0-.253.254-.253h2.198s.084 0 .084.084v6.592c0 .084 0 .084-.169.084h-2.282s-.085 0-.085-.084V9.55zm-5.916 0v3.128c0 .338 0 .254-.254.254h-2.197s-.085 0-.085-.085V6.424c0-.338 0-.338.254-.338h2.197s.085 0 .085.084v3.38zm-16.988 0V6.34c0-.254 0-.254.253-.254h2.198c.084 0 .084 0 .084.084v6.508c0 .17 0 .17-.169.17h-2.197c-.085 0-.17 0-.17-.17V9.551zm-37.02 3.213H.169c-.085 0-.085 0-.085-.085V6.255c0-.085 0-.085.17-.17h2.282c.084 0 .084 0 .084.085v6.339c-.084.085-.084.17-.084.254zm7.775-3.213v3.212c0 .17 0 .17-.169.17H7.86s-.084 0-.084-.085V6.508c0-.254 0-.254.253-.254h2.113c.085 0 .17 0 .17.17V9.55zm35.245 0V6.255c0-.084 0-.084.085-.084h2.282c.084 0 .084 0 .169.084v6.593c0 .084 0 .084-.085.084h-2.282c-.169 0-.169 0-.169-.169V9.551zm33.47 0v3.044c0 .338 0 .253-.253.253H76.66c-.085 0-.085 0-.085-.084V6.508c0-.422 0-.338.338-.338h2.029c.084 0 .084 0 .084.085V9.55zm-8.452-6.845V5.24c0 .17 0 .17-.169.17h-2.197c-.17 0-.17 0-.17-.17V.085c0-.085 0-.085.17-.085h2.197c.17 0 .17 0 .17.169v2.536zm-31.018 0V.254c0-.254 0-.254.253-.254h2.198s.084 0 .084.085v5.071c0 .338 0 .253-.254.253H39.64c-.084 0-.084 0-.084-.084v-2.62zm-8.622 0v2.45c0 .254 0 .254-.253.254h-2.198c-.084 0-.084 0-.084-.084V.338c0-.338 0-.338.338-.338h2.113c.084 0 .084 0 .084.085v2.62z" fill="#3D4656"/></svg>