<svg width="103" height="28" fill="none" xmlns="http://www.w3.org/2000/svg"><path d="M70.595 22v-5.084c0-1.251-.468-1.877-1.637-1.877a6.19 6.19 0 00-1.326.157v7.43c0 .234-.234.47-.468.47H65.37c-.234 0-.468-.236-.468-.47v-8.682c0-.313.234-.547.468-.625 1.17-.391 2.34-.626 3.587-.626 2.808 0 4.368 1.486 4.368 4.224v5.787c0 .235-.234.47-.468.47h-1.092c-.702 0-1.17-.548-1.17-1.174zm7.019-3.05l-.078.704c0 .939.624 1.486 1.637 1.486.78 0 1.482-.235 2.262-.626.078 0 .156-.078.234-.078.156 0 .234.078.312.156.078.079.234.313.234.313.156.235.312.547.312.782 0 .391-.234.782-.546.939-.857.47-1.87.704-2.963.704-1.247 0-2.261-.313-3.041-.939a3.666 3.666 0 01-1.248-2.815v-3.05c0-2.425 1.56-3.911 4.212-3.911 2.573 0 4.055 1.408 4.055 3.91v1.877c0 .235-.234.47-.468.47h-4.913l-.001.078zm-.078-1.72h2.963v-.783c0-.938-.546-1.564-1.481-1.564-.936 0-1.482.547-1.482 1.564v.782zm19.886 1.72l-.078.704c0 .939.624 1.486 1.637 1.486.78 0 1.482-.235 2.262-.626.078 0 .156-.078.234-.078.156 0 .234.078.312.156.078.079.234.313.234.313.156.235.312.547.312.782 0 .391-.234.782-.546.939-.857.47-1.871.704-2.963.704-1.247 0-2.261-.313-3.041-.939a3.666 3.666 0 01-1.248-2.815v-3.05c0-2.425 1.56-3.911 4.212-3.911 2.573 0 4.054 1.408 4.054 3.91v1.877c0 .235-.233.47-.467.47h-4.913v.078h-.001zm-.078-1.72h2.963v-.783c0-.938-.546-1.564-1.482-1.564-.936 0-1.481.547-1.481 1.564v.782zm-45.855 5.943h1.092c.234 0 .468-.234.468-.47v-5.787c0-2.659-1.404-4.223-3.743-4.223-.702 0-1.482.156-1.95.313v-2.894c0-.626-.545-1.174-1.17-1.174h-1.091c-.234 0-.468.235-.468.47v13.296c0 .235.234.47.468.47h1.793c.234 0 .468-.235.468-.47v-7.352c.39-.156.936-.235 1.326-.235 1.17 0 1.637.548 1.637 1.877v5.084c.079.548.547 1.095 1.17 1.095zm11.776-6.57v2.894c0 2.425-1.638 3.91-4.367 3.91-2.652 0-4.367-1.485-4.367-3.91v-2.894c0-2.424 1.637-3.91 4.367-3.91s4.367 1.486 4.367 3.91zm-2.73 0c0-.938-.545-1.564-1.559-1.564-1.014 0-1.56.547-1.56 1.564v2.894c0 .939.546 1.486 1.56 1.486s1.56-.547 1.56-1.486v-2.894zm-17.39-1.329c0 2.503-1.871 4.224-4.367 4.224-.624 0-1.17-.079-1.715-.313v3.52c0 .234-.234.469-.468.469H34.8c-.234 0-.468-.235-.468-.47V10.268c0-.313.234-.547.468-.625 1.17-.391 2.34-.626 3.587-.626 2.807 0 4.757 1.72 4.757 4.38v1.877zm-2.807-2.034c0-1.25-.858-1.877-2.028-1.877-.702 0-1.17.235-1.17.235v5.162c.468.235.702.313 1.248.313 1.17 0 2.028-.704 2.028-1.877v-1.955h-.078zm53.185 2.034c0 2.503-1.872 4.224-4.367 4.224-.624 0-1.17-.079-1.716-.313v3.52c0 .234-.234.469-.468.469h-1.794c-.234 0-.468-.235-.468-.47V10.268c0-.313.234-.547.468-.625 1.17-.391 2.34-.626 3.587-.626 2.808 0 4.757 1.72 4.757 4.38v1.877zm-2.808-2.034c0-1.25-.857-1.877-2.027-1.877-.702 0-1.17.235-1.17.235v5.162c.468.235.702.313 1.247.313 1.17 0 2.028-.704 2.028-1.877v-1.955h-.078zM13.96 28c7.709 0 13.958-6.268 13.958-14S21.668 0 13.96 0C6.25 0 0 6.268 0 14s6.25 14 13.96 14z" fill="#5F259F"/><path d="M20.295 10.346c0-.548-.468-1.017-1.013-1.017H17.41l-4.289-4.927c-.39-.47-1.013-.626-1.637-.47l-1.482.47c-.234.078-.312.39-.156.547l4.68 4.459H7.427c-.234 0-.39.156-.39.39v.782c0 .548.468 1.017 1.014 1.017h1.092v3.754c0 2.816 1.481 4.459 3.977 4.459.78 0 1.404-.079 2.183-.391v2.503c0 .704.546 1.25 1.248 1.25h1.092c.234 0 .468-.234.468-.469V11.52h1.794c.233 0 .39-.156.39-.39v-.783zm-4.99 6.726c-.469.235-1.092.313-1.56.313-1.248 0-1.872-.626-1.872-2.034v-3.754h3.431v5.475z" fill="#fff"/></svg>