<svg width="36" height="29" fill="none" xmlns="http://www.w3.org/2000/svg"><path d="M19.066 28.319v-2.46c0-.605-.246-.908-.861-.908-.246 0-.533.038-.697.076v3.595c0 .113-.123.227-.246.227h-.943c-.123 0-.246-.114-.246-.227v-4.2c0-.152.123-.265.246-.303a6.331 6.331 0 011.886-.303c1.476 0 2.296.72 2.296 2.044v2.8c0 .113-.123.227-.246.227h-.574c-.37 0-.615-.265-.615-.568zm3.69-1.476l-.041.341c0 .454.328.719.86.719.41 0 .78-.114 1.19-.303.041 0 .082-.038.123-.038.082 0 .123.038.164.076.041.038.123.151.123.151.082.114.164.265.164.379a.52.52 0 01-.287.454c-.45.227-.984.34-1.558.34-.656 0-1.189-.151-1.599-.454-.41-.34-.656-.794-.656-1.362V25.67c0-1.173.82-1.892 2.214-1.892 1.354 0 2.133.682 2.133 1.892v.908c0 .114-.123.227-.246.227h-2.584v.038zm-.041-.832h1.558v-.378c0-.454-.287-.757-.78-.757-.491 0-.778.265-.778.757v.378zm10.455.832l-.04.341c0 .454.327.719.86.719.41 0 .78-.114 1.19-.303.04 0 .081-.038.123-.038.082 0 .123.038.164.076.04.038.123.151.123.151.082.114.164.265.164.379a.52.52 0 01-.287.454c-.451.227-.984.34-1.558.34-.656 0-1.19-.151-1.6-.454-.41-.34-.655-.794-.655-1.362V25.67c0-1.173.82-1.892 2.214-1.892 1.353 0 2.132.682 2.132 1.892v.908c0 .114-.123.227-.246.227h-2.583v.038zm-.04-.832h1.557v-.378c0-.454-.286-.757-.779-.757-.492 0-.779.265-.779.757v.378zM9.02 28.887h.574c.123 0 .246-.114.246-.228v-2.8c0-1.286-.738-2.043-1.968-2.043-.369 0-.779.076-1.025.152v-1.4c0-.303-.287-.568-.615-.568h-.574c-.123 0-.246.113-.246.227v6.432c0 .114.123.228.246.228h.943c.123 0 .246-.114.246-.228v-3.556a2.23 2.23 0 01.697-.114c.615 0 .861.265.861.908v2.46c.041.265.287.53.615.53zm6.192-3.179v1.4c0 1.173-.861 1.892-2.296 1.892-1.395 0-2.297-.719-2.297-1.892v-1.4c0-1.173.861-1.892 2.297-1.892 1.435 0 2.296.72 2.296 1.892zm-1.435 0c0-.454-.287-.757-.82-.757-.534 0-.82.265-.82.757v1.4c0 .454.287.719.82.719.533 0 .82-.265.82-.719v-1.4zm-9.144-.643c0 1.21-.984 2.043-2.296 2.043a2.37 2.37 0 01-.902-.151v1.703c0 .113-.123.227-.246.227H.246c-.123 0-.246-.114-.246-.227v-6.017c0-.151.123-.264.246-.302a6.328 6.328 0 011.886-.303c1.476 0 2.501.832 2.501 2.119v.908zm-1.476-.984c0-.605-.45-.908-1.066-.908a1.59 1.59 0 00-.615.114v2.497c.246.113.37.151.656.151.615 0 1.066-.34 1.066-.908v-.946h-.04zm27.963.984c0 1.21-.983 2.043-2.296 2.043a2.37 2.37 0 01-.902-.151v1.703c0 .113-.123.227-.246.227h-.943c-.123 0-.246-.114-.246-.227v-6.017c0-.151.123-.264.246-.302a6.329 6.329 0 011.886-.303c1.476 0 2.501.832 2.501 2.119v.908zm-1.476-.984c0-.605-.45-.908-1.066-.908a1.59 1.59 0 00-.615.114v2.497c.246.113.37.151.656.151.615 0 1.066-.34 1.066-.908v-.946h-.04zM17.5 21C23.299 21 28 16.299 28 10.5S23.299 0 17.5 0 7 4.701 7 10.5 11.701 21 17.5 21z" fill="#fff"/><path d="M22.266 7.76a.777.777 0 00-.763-.763h-1.408L16.87 3.302c-.293-.352-.762-.47-1.231-.352l-1.115.352c-.176.059-.235.293-.117.41l3.52 3.344h-5.34c-.175 0-.292.117-.292.293v.587c0 .41.352.762.762.762h.821v2.816c0 2.112 1.115 3.344 2.992 3.344.586 0 1.056-.06 1.642-.294v1.878c0 .528.41.938.939.938h.821a.379.379 0 00.352-.352V8.64h1.35c.175 0 .293-.117.293-.293V7.76zm-3.755 5.044c-.352.176-.82.235-1.173.235-.938 0-1.408-.469-1.408-1.525V8.698h2.581v4.106z" fill="#4E2482"/></svg>