<svg width="59" height="24" fill="none" xmlns="http://www.w3.org/2000/svg"><path d="M26.511.337H55.83c1.563 0 2.86 1.357 2.86 3.007v17.337c0 1.65-1.297 3.008-2.86 3.008H26.51c-1.572 0-2.85-1.357-2.85-3.008V3.344c0-1.65 1.287-3.007 2.85-3.007z" fill="#FAB90C"/><path d="M26.511.649c-1.4 0-2.54 1.21-2.54 2.696v17.337c0 1.486 1.14 2.696 2.54 2.696H55.83c1.408 0 2.548-1.21 2.548-2.696V3.345c0-1.486-1.14-2.696-2.548-2.696H26.51zM55.83 24H26.51c-1.745 0-3.162-1.486-3.162-3.318V3.345c0-1.832 1.417-3.319 3.162-3.319h29.32c1.745 0 3.17 1.487 3.17 3.32v17.336C59 22.514 57.583 24 55.83 24z" fill="#fff"/><path d="M20.698.312H3.274C1.65.312.311 1.66.311 3.319v17.354c0 1.65 1.339 3.008 2.963 3.008h17.424c1.64 0 2.971-1.357 2.971-3.008V3.319C23.66 1.66 22.33.312 20.698.312z" fill="#9E173B"/><path d="M3.274.622C1.805.622.614 1.832.614 3.32v17.354c0 1.486 1.191 2.696 2.66 2.696h17.424c1.468 0 2.66-1.21 2.66-2.696V3.319c0-1.487-1.192-2.697-2.66-2.697H3.274zm17.424 23.36H3.274C1.469 23.983 0 22.497 0 20.665V3.319C0 1.486 1.469 0 3.274 0h17.424c1.805 0 3.273 1.486 3.273 3.319v17.354c0 1.823-1.468 3.31-3.273 3.31z" fill="#fff"/><path d="M50.932 16.732c2.617 0 4.76-2.109 4.76-4.684 0-3.155-3.205-5.203-6.237-4.226V9.93c1.65-.967 3.87 0 3.87 1.954 0 1.365-1.201 2.515-2.566 2.515-1.425 0-2.557-1.15-2.557-2.515 0-2.861-.06-5.722-.06-8.582h-2.013v8.755l.052.458c.077 2.272 2.202 4.157 4.75 4.217zm-13.96-.337h2.056v-4.59c-.164-2.678 4.224-2.912 4.112 0v4.59h2.082v-4.693c.181-5.885-8.604-5.496-8.25 0v4.693zM31.4 7.303c2.618 0 4.752 2.109 4.752 4.684 0 3.155-3.145 5.212-6.177 4.226v-2.108c1.607.968 3.792 0 3.792-1.945a2.537 2.537 0 00-2.548-2.523 2.537 2.537 0 00-2.548 2.523c0 2.852-.06 5.652-.06 8.513h-1.97v-9.144c.06-2.29 2.211-4.183 4.76-4.226z" fill="#9E173B"/><path d="M16.37 3.362h4.25V20.63h-4.25v-4.892c-3.75 1.374-7.248 1.487-10.47-1.66-1.33-1.39-2.082-3.275-1.77-6.576.051-.501-.182-2.843-.778-4.148h3.775c1.77 2.808-.553 6.395 2.16 8.685 3.697 2.394 6.919-.466 7.074-3.05V3.361h.009zm-4.242 1.78c2.013 0 3.637 1.634 3.637 3.604 0 1.997-1.624 3.613-3.637 3.613-2.012 0-3.654-1.616-3.654-3.613 0-1.97 1.642-3.604 3.654-3.604z" fill="#FAB90C"/></svg>