<svg width="103" height="27" fill="none" xmlns="http://www.w3.org/2000/svg"><path d="M0 0v.093c0 .931 0 1.77.093 2.7.093.932.186 1.77.28 2.608.093.839.372 1.77.558 2.608.187.838.466 1.77.745 2.608.28.838.56 1.676.932 2.421v.093l.093.093c.372.931.838 1.77 1.304 2.608.372.745.838 1.397 1.303 2.142l.28.465c.558.839 1.117 1.677 1.77 2.422l.185.186.28.372c.372.466.838.932 1.21 1.398l.839.838.558.465.56.466c.651.559 1.303 1.117 1.955 1.583l.093.093.093.093.093-.093.093-.093c.652-.466 1.304-1.024 1.956-1.583l.559-.559.465-.466.839-.838c.465-.465.838-.931 1.303-1.397l.28-.279.186-.186c.652-.745 1.21-1.583 1.77-2.422l.372-.558c.466-.652.838-1.211 1.21-1.863l.187-.372c.373-.652.745-1.304 1.024-2.05l.093-.185H8.847l.093.186 1.397 2.235.187.28h8.381c-.186.372-.466.651-.745 1.024-.28.372-.559.838-.931 1.303-.186.28-.466.56-.652.839-.186.279-.652.838-1.025 1.21l-.558.559-.094.093c-.558.559-1.21 1.21-1.862 1.677a15.879 15.879 0 01-1.77-1.77l-.186-.186c-.186-.187-.372-.373-.465-.559a11.799 11.799 0 01-1.025-1.21c-.28-.187-.465-.466-.745-.746-.28-.28-.559-.838-.838-1.21a18.18 18.18 0 01-.931-1.397c-.559-.839-.932-1.677-1.397-2.608-.093-.186-.186-.466-.28-.652l-.838-1.955a12.188 12.188 0 01-.838-2.608c-.186-.931-.466-1.676-.559-2.608-.093-.931-.279-1.583-.372-2.421h20.395c-.093.838-.186 1.676-.372 2.421-.187.745-.28 1.77-.466 2.515H6.519l.093.186c.28.838.559 1.676.931 2.421l.094.187h17.042v-.187c.28-.838.559-1.583.745-2.421.186-.838.373-1.77.559-2.608.186-.838.093-1.769.186-2.607.093-.838.093-1.77.093-2.608V0H0zm38.555 9.872c0 .372-.093.838-.28 1.117-.185.373-.558.652-.837.838-.466.187-.932.373-1.49.28H34.83v2.607h-1.77v-7.17h2.887c.466 0 1.025.093 1.49.279.373.186.746.465.932.838.093.373.186.838.186 1.21zm-2.794.93c.28 0 .559-.092.745-.278a.845.845 0 00.28-.652.845.845 0 00-.28-.652c-.186-.186-.465-.28-.745-.28h-.931v1.863h.931zm5.122-3.259v4.284c0 .373.093.745.373 1.025.28.28.559.372.931.372.373 0 .652-.093.931-.372.28-.28.373-.652.373-1.025V7.543h1.77v4.284c0 .56-.094 1.118-.373 1.677-.28.465-.652.745-1.118 1.024-.465.28-1.024.373-1.583.373-.559 0-1.024-.094-1.49-.373a1.845 1.845 0 01-1.024-1.024c-.28-.466-.373-1.118-.373-1.677V7.543h1.583zm7.823 7.357c-.466 0-.931-.093-1.397-.279a4.136 4.136 0 01-1.024-.745c-.28-.372-.373-.745-.373-1.21h1.863c0 .186.093.465.28.651.185.187.372.187.651.187.186 0 .466-.093.652-.187.186-.093.186-.279.186-.465a.711.711 0 00-.186-.466c-.093-.093-.28-.186-.466-.28-.279-.092-.465-.185-.745-.279-.372-.093-.745-.279-1.117-.465-.28-.187-.559-.373-.745-.652-.186-.28-.373-.745-.373-1.118 0-.652.28-1.21.745-1.583a3.358 3.358 0 011.863-.559c.652 0 1.397.187 1.956.56.465.372.745.93.745 1.582h-1.863c0-.186-.093-.372-.28-.559-.186-.093-.372-.186-.558-.186-.186 0-.373.093-.559.187-.28.279-.28.651 0 .93 0 0 .093.094.186.094.28.186.652.372 1.025.466.372.093.745.279 1.117.465.28.186.56.373.745.652.187.28.373.652.28 1.024 0 .373-.093.746-.28 1.118-.186.373-.558.652-.93.838-.466.186-.932.28-1.398.28zm9.686-7.357v7.264h-1.77v-2.98h-2.7v2.98h-1.77V7.543h1.77v2.794h2.7V7.543h1.77zm8.381 2.329a.84.84 0 00-.559-.56c-.28-.185-.558-.185-.838-.185-.559 0-1.024.186-1.397.558-.372.373-.559.932-.559 1.49 0 .56.187 1.118.56 1.584.372.372.93.558 1.49.558a1.79 1.79 0 001.117-.372c.28-.28.559-.559.652-.931h-2.235V10.71h3.911v1.676c-.28.931-.931 1.676-1.863 2.142-.465.28-1.024.373-1.676.373-.652 0-1.304-.187-1.956-.466a2.943 2.943 0 01-1.303-1.304 3.972 3.972 0 010-3.818 2.942 2.942 0 011.303-1.304c.56-.28 1.211-.466 1.863-.466.745 0 1.583.187 2.235.652.559.373 1.025 1.025 1.21 1.77l-1.955-.093zm7.264 3.632h-2.7l-.466 1.303h-1.863l2.7-7.264h2.05l2.607 7.264h-1.862l-.466-1.303zm-.466-1.397l-.93-2.608-.84 2.608h1.77zm11.455-4.564v7.264h-1.77V10.43l-1.582 4.377h-1.397L78.6 10.43v4.377h-1.77V7.543h2.05l2.049 5.03 2.048-5.03h2.05zm2.701 0v7.264h-1.77V7.543h1.77zm7.45 7.264h-1.77l-2.98-4.47v4.47h-1.769V7.543h1.77l2.98 4.47v-4.47h1.77v7.264zm5.774-4.935a.838.838 0 00-.559-.56c-.279-.185-.558-.185-.838-.185-.558 0-1.024.186-1.397.558-.372.373-.558.932-.558 1.49 0 .56.186 1.118.558 1.584.373.372.932.558 1.49.558a1.79 1.79 0 001.118-.372 1.71 1.71 0 00.652-.931h-2.235V10.71H103v1.676c-.093.466-.373.838-.652 1.21a3.022 3.022 0 01-1.211.932c-.465.28-1.024.373-1.676.373-.652 0-1.304-.187-1.956-.466a2.943 2.943 0 01-1.303-1.304 3.972 3.972 0 010-3.818 2.943 2.943 0 011.303-1.304c.56-.28 1.211-.466 1.863-.466.745 0 1.583.187 2.142.652.559.373 1.024 1.025 1.211 1.77l-1.77-.093z" fill="#3D4656"/></svg>