<svg width="104" height="29" fill="none" xmlns="http://www.w3.org/2000/svg"><path d="M18.063 0H1.971C1.423 0 .985.219.547.547A2.02 2.02 0 000 1.861v24.632c0 .547.219.985.547 1.313.438.438.876.657 1.424.657h16.092c.547 0 .985-.219 1.314-.547a2.02 2.02 0 00.547-1.314V1.861c0-.547-.219-.985-.547-1.314A1.813 1.813 0 0018.063 0zM16.64 15.217c0 .985-.328 2.08-.985 2.846l-2.628 3.394 2.956 2.737c.11.11.11.11.11.219v.219c0 .11-.11.11-.22.218-.109 0-.109.11-.218.11h-3.613a.837.837 0 01-.547-.219l-.548-.438-.328-.328-1.97-1.752c-.11-.219-.11-.328-.11-.328 0-.11 0-.22.11-.329l4.05-5.254c.438-.548.657-1.314.657-1.97v-4.49c.11-.766-.22-1.641-.767-2.189-1.642-.876-3.503-.876-5.035 0-.548.548-.767 1.423-.767 2.19v4.707c0 .328.11.766.22 1.095.109.328.437.657.656.876l1.314 1.204c.11.11.11.219.11.219 0 .11 0 .219-.11.328l-1.642 2.08-.11.11h-.11c-.109 0-.109 0-.109-.11l-1.86-1.752c-.986-.875-1.533-2.189-1.533-3.503V8.43c-.329-1.313.219-2.627 1.204-3.503.766-.657 2.299-1.313 5.255-1.313 2.955 0 4.488.547 5.254 1.313.986.876 1.533 2.19 1.314 3.503v6.788zm85.718-.11v9.524l-4.598-8.21c-.547-.985-.985-1.314-1.642-1.314-.657 0-1.204.548-1.204 1.423v10.51h1.642v-9.524l4.598 8.21c.547.985.985 1.314 1.642 1.314.657 0 1.204-.548 1.204-1.423v-10.51h-1.642zm-32.514 0h-2.19l-4.488 4.707v-4.707h-1.642V27.04h1.642v-4.927l.438-.547 4.16 5.364h2.08L64.7 20.362l5.145-5.255zm16.969.766c-.876-.547-1.97-.766-2.956-.766h-3.065V27.04h1.642v-4.16h1.314c.985 0 2.08-.22 2.955-.767a3.862 3.862 0 00.986-5.364c-.11-.328-.438-.657-.876-.875zm-.876 4.927c-.657.438-1.314.657-2.08.547h-1.314V16.53h1.314c.766 0 1.533.11 2.08.548.547.438.876 1.094.876 1.86 0 .33-.11.658-.22.986-.109.438-.328.657-.656.876zm-52.438 4.817a2.39 2.39 0 00.547-.876c.329-.766.438-1.752.438-2.627v-2.3c0-.875-.11-1.751-.438-2.627-.657-1.423-2.19-2.408-3.831-2.299-1.642 0-3.175.876-3.832 2.3-.328.766-.438 1.75-.438 2.627v2.299c0 .875.11 1.751.438 2.627.657 1.533 2.19 2.408 3.832 2.408.657 0 1.313-.11 1.86-.328l1.314 1.642h2.3l-2.19-2.846zm-.657-3.285c0 .657 0 1.314-.219 1.862-.657 1.313-2.19 1.86-3.503 1.204a2.17 2.17 0 01-1.204-1.204c-.22-.657-.329-1.314-.22-1.971v-2.19c0-.656 0-1.313.22-1.97.657-1.314 2.19-1.861 3.503-1.204a2.17 2.17 0 011.204 1.204c.22.657.329 1.314.22 1.97v2.3zm21.785-5.254c1.095-.876 2.409-.876 4.38-.438v-1.095c-.767-.328-1.643-.547-2.518-.547-1.095-.11-2.3.219-3.175.985-.986.985-1.533 2.299-1.642 3.613-.11.985-.11 2.08 0 3.065 0 1.423.657 2.627 1.642 3.613.876.766 1.97 1.094 3.175.985.875 0 1.751-.22 2.517-.547v-1.095c-1.97.438-3.284.328-4.379-.438-1.094-.766-1.313-2.409-1.313-4.05 0-1.643.219-3.175 1.313-4.051zm21.457-.766c.876 0 1.642.11 2.518.219v-1.205a8.413 8.413 0 00-3.284-.328c-.657 0-1.314.11-1.97.219-.657.11-1.314.547-1.643 1.095-.328.547-.438 1.204-.219 1.751l.11.11c.328.876.876 1.532 1.423 2.19.766.765 2.19 2.189 2.846 2.955.438.438.876 1.095.657 1.642-.219.547-1.314.985-2.737.985-.876 0-1.642-.11-2.518-.219v1.314a8.415 8.415 0 003.285.329c2.299-.11 3.174-.657 3.612-1.314.22-.329.329-.657.329-1.095v-.219c0-.766-.438-1.423-.986-1.97-.875-.986-2.517-2.518-3.284-3.285l-.219-.219c-.547-.547-1.095-1.204-.876-1.86.22-.657 1.752-1.095 2.956-1.095zm-26.711-1.205H47.73V27.04h1.642V15.107zm42.913 0h-1.642V27.04h1.642V15.107zm-53.97 0h-1.642v7.882c0 1.423.438 4.27 4.16 4.27s4.16-2.847 4.16-4.27v-7.882h-1.642v7.882c0 2.518-1.752 2.847-2.518 2.847-.767 0-2.518-.329-2.518-2.847v-7.882z" fill="#3D4656"/></svg>