<svg width="114" height="30" fill="none" xmlns="http://www.w3.org/2000/svg"><path d="M107.002 2.19l6.397 12.704-13.449 12.71 7.052-25.414z" fill="#008C44"/><path d="M102.571 2.19l6.389 12.704-13.44 12.71 7.05-25.414z" fill="#F47920"/><path d="M0 22.981L6.379.001h10.198c3.187 0 5.316.504 6.4 1.544 1.075 1.031 1.282 2.714.633 5.08-.392 1.395-.988 2.565-1.806 3.49-.812.925-1.883 1.658-3.202 2.196 1.119.27 1.83.803 2.15 1.604.317.8.28 1.969-.105 3.5l-.776 3.21-.002.087c-.224.898-.157 1.38.207 1.419l-.235.85h-6.899c.024-.54.067-1.024.112-1.43a6.8 6.8 0 01.174-.958l.643-2.295c.324-1.193.344-2.026.043-2.506-.303-.492-.983-.734-2.055-.734h-2.9L6.75 22.98H0zM10.394 9.88h3.105c1.088 0 1.892-.155 2.387-.477.497-.324.866-.871 1.083-1.663.224-.805.17-1.367-.153-1.686-.321-.324-1.09-.481-2.3-.481H11.59L10.394 9.88zm32.15-3.857l-4.702 16.958h-5.714l.702-2.484c-1.006.988-2.035 1.738-3.073 2.218a7.51 7.51 0 01-3.258.727c-.945 0-1.756-.171-2.41-.511a3.297 3.297 0 01-1.484-1.535c-.294-.596-.423-1.33-.372-2.209.052-.864.358-2.322.923-4.364l2.437-8.8h6.251l-2.432 8.759c-.355 1.282-.44 2.183-.267 2.674.18.495.663.75 1.444.75.788 0 1.45-.285 1.997-.867.555-.577.983-1.437 1.305-2.582l2.412-8.734h6.241zm-2.268 16.958L46.648.001h8.766c1.934 0 3.431.113 4.499.364 1.065.24 1.9.63 2.521 1.18.778.719 1.255 1.608 1.451 2.676.185 1.068.075 2.311-.328 3.771-.714 2.57-1.966 4.538-3.749 5.914-1.789 1.357-4.002 2.04-6.643 2.04h-4.102l-1.949 7.035h-6.838zm10.34-12.648h2.204c1.425 0 2.427-.176 3.014-.516.568-.344.972-.955 1.218-1.825.246-.88.183-1.497-.19-1.84-.358-.343-1.273-.516-2.737-.516h-2.2l-1.31 4.697zM70.91 22.981l.063-1.61c-1.008.755-2.028 1.325-3.055 1.681a9.698 9.698 0 01-3.275.548c-1.77 0-3.005-.482-3.72-1.413-.705-.933-.82-2.272-.34-3.98.461-1.687 1.28-2.928 2.462-3.722 1.175-.803 3.138-1.377 5.891-1.745.35-.057.817-.103 1.403-.173 2.036-.236 3.178-.778 3.424-1.663.129-.485.05-.842-.25-1.062-.29-.227-.833-.34-1.616-.34-.65 0-1.172.135-1.601.416-.429.283-.748.696-.965 1.277h-6.094c.55-1.909 1.675-3.351 3.363-4.316 1.681-.981 3.899-1.453 6.646-1.453 1.291 0 2.448.12 3.47.383 1.024.251 1.773.609 2.258 1.042.598.541.952 1.158 1.052 1.84.117.68-.01 1.654-.367 2.93l-2.622 9.454c-.084.31-.1.585-.054.837.054.24.16.444.344.59l-.14.48H70.91zm1.52-7.572c-.665.267-1.527.523-2.6.803-1.683.452-2.63 1.055-2.835 1.8-.142.48-.085.849.15 1.13.23.266.632.401 1.198.401 1.038 0 1.87-.262 2.492-.78.622-.525 1.088-1.348 1.414-2.484.056-.242.107-.416.139-.546l.041-.324zm4.804 14.255l1.387-5.02h1.789c.597 0 1.067-.118 1.4-.333.338-.223.568-.6.7-1.106a3.97 3.97 0 00.136-.725 8.056 8.056 0 000-.929L81.69 6.023h6.327l-.098 10.29 5.523-10.29h5.884L89.562 22.9c-1.108 1.886-1.913 3.182-2.424 3.889-.505.698-.984 1.241-1.449 1.609a5.42 5.42 0 01-2.001 1.079c-.728.214-1.837.32-3.326.32-.43 0-.922-.008-1.456-.035a44.072 44.072 0 01-1.672-.098z" fill="#1B3281"/></svg>