<svg width="104" height="20" fill="none" xmlns="http://www.w3.org/2000/svg"><path d="M.777.501H9.32c.518 0 .95.087 1.467.173 3.107.863 5.696 3.107 7.077 6.04.086.173.259.346.086.519-.172.172-.345-.087-.518-.173a6.658 6.658 0 00-3.02-1.036c-2.848-.172-5.61 0-8.371-.086-.345 0-.432.173-.432.518 0 .518.26.604.69.604h8.544c.346 0 .69 0 1.036.086 1.295.26 2.158 1.295 2.158 2.59v8.802c0 .776 0 .776-.777.776H9.665C5.61 19.142 1.9 16.726.26 13.014c-.086-.258-.259-.43-.173-.517.087-.086.345 0 .518.086 1.036.69 2.244 1.036 3.538 1.122h7.767c.345 0 .604-.086.604-.518 0-.431-.258-.518-.604-.518-2.33-.086-4.746 0-7.076 0-.777 0-1.64.087-2.417 0C1.036 12.497 0 11.375 0 9.994V1.192c0-.346.345-.69.777-.69zm33.311 17.001v-7.94c0-.172 0-.43.259-.345.259.087.259.173.259.346v.69h.172c.864-1.036 2.33-1.467 3.539-.95 1.122.432 1.898 1.554 1.985 2.762.086.95-.173 1.985-.777 2.762-.95 1.208-3.625 1.294-4.66-.086-.087-.087-.173-.173-.26-.173v3.02l-.517-.086zm3.107-8.026c-1.295-.086-2.416.863-2.59 2.158a2.851 2.851 0 000 1.208c.087 1.38 1.295 2.416 2.676 2.33.26 0 .518-.086.777-.173 1.208-.431 1.812-1.726 1.553-3.365-.086-1.295-1.208-2.158-2.416-2.158zm-6.214-.604c0 .173.087.432-.172.432-.26 0-.345-.173-.345-.346-.087-.863-.777-1.64-1.64-1.725a6.976 6.976 0 00-2.675 0 1.918 1.918 0 00-1.122.69c-.432.69-.26 1.553.431 1.985.087.086.26.172.345.172.604.26 1.295.346 1.899.518.863.173 1.726.345 2.503.69.69.346 1.122.95 1.122 1.726.086.69-.346 1.381-.95 1.727a5.439 5.439 0 01-5.264-.087c-.777-.431-1.208-1.294-1.036-2.157 0-.173 0-.26.26-.26.258 0 .258.087.258.26 0 .172 0 .431.087.604.172.69.69 1.294 1.38 1.467 1.208.431 2.59.431 3.797-.086.777-.26 1.209-1.036 1.036-1.899a1.486 1.486 0 00-.863-1.036c-.777-.258-1.553-.431-2.33-.604-.69-.172-1.295-.345-1.985-.517-1.035-.346-1.553-1.468-1.208-2.503 0-.086 0-.086.086-.173.173-.517.604-.863 1.122-1.122.345-.086.95-.086 1.726-.086 2.848 0 3.452 1.553 3.538 2.33zM65.07 10.08a2.69 2.69 0 012.502-.863c.604.087 1.122.346 1.467.863.087.173.173.173.26 0 .603-1.035 2.502-1.122 3.365-.604.604.345.863.95.863 1.64v4.142c0 .173 0 .432-.26.432-.258 0-.258-.173-.258-.432v-3.71c0-1.122-.518-1.813-1.467-1.9-1.036-.172-2.071.432-2.244 1.468v.173c-.172 1.208 0 2.502-.086 3.797v.172c0 .173 0 .346-.259.346s-.259-.087-.259-.346v-3.797c0-1.035-.345-1.553-1.122-1.726-.863-.259-1.898.086-2.33.95-.172.431-.345.862-.259 1.294v3.193c0 .173.087.431-.259.431-.345 0-.259-.258-.259-.431v-5.35c0-.173-.086-.518.26-.518.345 0 .258.259.258.517 0 .26 0 .087.087.26zm14.843 2.59H77.41c-.259 0-.345.086-.345.345 0 1.208 1.036 2.157 2.244 2.157h.086c1.122.173 2.158-.345 2.675-1.38.087-.173.26-.26.432-.173.259.086.086.258 0 .431a2.766 2.766 0 01-2.33 1.64c-.432.086-.95.086-1.38 0-.95-.173-1.727-.777-1.986-1.726-.518-1.295-.259-2.848.69-3.884 1.036-.949 2.503-1.122 3.712-.604 1.121.518 1.725 1.64 1.64 2.848 0 .26-.174.345-.346.345h-2.589zm-.345-.605h1.985c.604 0 .69-.086.517-.69a2.621 2.621 0 00-3.279-1.726c-.95.259-1.64 1.122-1.812 2.071 0 .259.086.345.345.345a9.747 9.747 0 002.244 0zm20.366-1.726v-.863c0-.259 0-.431.259-.431s.259.172.259.431v5.61c0 .172.086.431-.259.431s-.259-.259-.259-.431v-.69c-.172 0-.258.172-.345.258-.95 1.036-2.502 1.295-3.797.69-.69-.345-1.208-.862-1.38-1.553-.432-1.035-.346-2.244.258-3.28.95-1.466 2.848-1.898 4.315-.948.173.172.432.258.518.431.172.173.259.259.431.345zm-2.675-.69a2.058 2.058 0 00-1.985.95c-.69 1.035-.776 2.33-.259 3.365.26.69.95 1.122 1.64 1.208 1.38.345 2.762-.518 3.107-1.899.086-.172.086-.431.086-.69.173-1.726-.863-3.02-2.589-2.934zm-39.007 6.04c-1.726.087-3.107-1.207-3.28-2.933v-.432c-.086-1.726 1.209-3.193 2.935-3.28h.345c1.726-.086 3.107 1.295 3.193 2.935v.345c.173 1.64-1.122 3.193-2.762 3.28-.086.086-.258.086-.431.086zm0-6.04c-1.467-.086-2.675 1.036-2.762 2.416v.346c-.086 1.466.95 2.761 2.417 2.847h.259c1.467.087 2.675-.949 2.761-2.416v-.345c.173-1.381-.863-2.676-2.33-2.848h-.345zm28.133.518c.777-.863 1.985-1.295 3.107-.95 1.036.173 1.813 1.122 1.726 2.158v3.97c0 .086-.172.258-.259.172a.186.186 0 01-.172-.172V11.72c.086-1.122-.69-2.071-1.813-2.157-.345 0-.69 0-.949.172-1.035.345-1.726 1.295-1.64 2.417v3.106c0 .087 0 .346-.259.346-.258 0-.258-.173-.258-.346V9.563c0-.173 0-.346.258-.346.26 0 .26.173.26.346-.087.172-.087.345 0 .604zm-39.093-.087c.95-1.294 3.538-1.208 4.315-.259.345.346.518.777.518 1.295v4.142c0 .173 0 .346-.26.346-.258 0-.258-.173-.258-.346 0-1.208-.086-2.416 0-3.71.086-1.036-.69-1.9-1.726-1.9h-.432c-1.208 0-2.243.95-2.243 2.245v3.279c0 .173.086.431-.26.431-.344 0-.258-.258-.258-.431V9.735c0-.172 0-.345.259-.345s.259.173.259.345c0 .173.086.173.086.345zm56.181 1.122V7.146c0-.172.086-.259.172-.259h.087c.086 0 .258.087.258.173v8.026c0 .172.087.518-.258.518-.346 0-.259-.26-.259-.432v-3.97zM43.84 15c0 .173 0 .432-.259.432s-.259-.259-.259-.432V9.563c0-.173 0-.432.259-.432s.259.259.259.432v5.436z" fill="#3D4656"/></svg>