<svg width="104" height="21" fill="none" xmlns="http://www.w3.org/2000/svg"><path d="M7.212 7.074L.42 7.287a.42.42 0 00-.307.145.428.428 0 00-.11.32l.123 1.85c.017.23.209.408.439.404l1.845-.021.418 8.686a.436.436 0 00.464.413l2.084-.14a.434.434 0 00.405-.448l-.243-8.558 1.829-.021c.12 0 .23-.052.31-.141a.435.435 0 00.116-.324L7.66 7.479a.437.437 0 00-.448-.405zm7.91.567l-2.054-.111a.43.43 0 00-.439.413l-.03 4.53-.895.192-.226-5.14a.432.432 0 00-.43-.413l-2.024.051a.438.438 0 00-.44.444l.371 11.426a.44.44 0 00.43.43l2.025-.05c.12 0 .23-.044.311-.129a.445.445 0 00.128-.31l-.221-3.828.792.055.141 3.427a.44.44 0 00.43.456l2.114.145h.026a.433.433 0 00.413-.422l.009-10.715a.43.43 0 00-.12-.315.43.43 0 00-.31-.136zm7.616-.96l-1.87.141a.432.432 0 00-.401.43s.017 7.152-.009 8.086c-.017.554.06 1.487-.55 1.513-.417.017-.562-.593-.57-1.458-.01-.972.072-7.624.072-7.693a.435.435 0 00-.388-.439L16.9 7.036a.423.423 0 00-.337.11.423.423 0 00-.14.329s.08 8.378.085 8.673c.025 1.086.86 3.034 3.217 2.97 2.643-.072 3.12-1.645 3.282-3.482.068-.763.192-7.748.2-8.524a.44.44 0 00-.136-.32.429.429 0 00-.333-.11zm8.213.457l-1.94.094a.435.435 0 00-.412.464l.32 5.366-2.008-5.545a.431.431 0 00-.452-.281l-1.943.213a.435.435 0 00-.388.439l.32 10.578c0 .226.178.418.404.43l1.948.145a.44.44 0 00.469-.456l-.303-4.628 1.684 4.807a.44.44 0 00.383.286h2.097a.44.44 0 00.281-.12.456.456 0 00.137-.32l-.124-11.037a.43.43 0 00-.136-.312.456.456 0 00-.337-.123zm2.6-.226c-.137 0-.273 0-.414.004a.431.431 0 00-.422.422l-.349 10.992c-.008.234.17.43.4.447.01 0 .256.021.644.021 1.364 0 4.624-.247 5.374-2.54.627-1.905.525-4.509.367-5.749-.311-2.42-2.144-3.597-5.6-3.597zm2.902 7.24c-.23 1.86-.814 1.974-1.453 2.196l.298-6.904c.222.06.503.05.861.528.529.699.52 2.365.294 4.18zm9.057 2.69l-2.549.2-.12-2.378 1.65-.093a.434.434 0 00.405-.388l.153-1.462a.44.44 0 00-.115-.345.447.447 0 00-.34-.137l-1.79.094V9.746h2.646a.431.431 0 00.435-.435c0-.034-.005-.064-.009-.098l-.149-1.551a.432.432 0 00-.447-.392l-4.842.12a.435.435 0 00-.422.438L40.17 18.7c.004.239.196.43.434.43h4.897c.235 0 .43-.187.435-.421l.038-1.42a.435.435 0 00-.136-.328.415.415 0 00-.328-.119zm7.918-6.376c-.106-1.525-.635-3.55-3.955-3.55-.712 0-1.547.094-2.484.277a.432.432 0 00-.35.435l.153 10.638c.005.226.18.409.401.426l1.526.12c.12.012.239-.03.328-.116a.429.429 0 00.14-.32v-3.43l.776-.043.861 3.674a.433.433 0 00.427.353h.034l1.525-.119a.43.43 0 00.311-.166.43.43 0 00.086-.341l-1.083-4.087c.755-.584 1.458-1.633 1.304-3.75zm-2.753 1.5c-.392.423-1.065.55-1.491.584V9.414a1.99 1.99 0 01.417-.047c.584 0 1.296.26 1.39 1.508.038.465-.064.823-.316 1.092zm8.567 1.616c.63-.831 2.224-2.758 2.058-6.129a.435.435 0 00-.464-.413l-1.812.12a.435.435 0 00-.405.464c.064.954-.566 2.992-1.474 4.274l.132-4.146a.415.415 0 00-.128-.316.421.421 0 00-.315-.128l-2.336.034a.427.427 0 00-.426.443l.234 11.01a.436.436 0 00.494.422l1.82-.244a.44.44 0 00.38-.426l.03-3.226c.37.221 1.453 1.79 1.636 3.341a.43.43 0 00.435.384l1.918-.009h.025a.417.417 0 00.282-.132.433.433 0 00.123-.316c-.017-.383-.669-3.767-2.207-5.007zm5.43-6.768l-2.076.268a.433.433 0 00-.38.43L62.2 18.3a.436.436 0 00.456.434h.013l2.259-.166a.438.438 0 00.405-.439L65.17 7.244a.442.442 0 00-.499-.43zm4.415.315c-.631.043-2.694.41-2.865 3.452-.02.388-.042.755-.063 1.104-.124 2.067-.214 3.563.05 4.859.163.776.806 2.57 3.368 2.57.157 0 .324-.009.49-.021 1.07-.09 1.862-.431 2.352-1.02.704-.835.61-1.904.559-2.48l-.009-.115a.434.434 0 00-.452-.4l-1.615.072a.435.435 0 00-.32.162.457.457 0 00-.093.345c.034.218.072.908-.21 1.25-.072.084-.204.204-.506.208h-.022c-.234 0-.409-.068-.545-.217-.234-.248-.499-.857-.426-2.336.017-.345.034-.746.05-1.172.043-1.108.095-2.37.197-3.158l.004-.026c.077-.6.192-.856.695-.878.358-.017.61.056.741.218.17.204.15.55.128.665a.432.432 0 00.09.358.427.427 0 00.332.162l1.948.025a.44.44 0 00.439-.422c.004-.05.034-1.236-.861-2.165-.754-.788-1.922-1.142-3.457-1.04zM82.03 18.16c-.03-.128-.87-3.426-2.579-4.986.836-.789 2.545-2.349 1.974-5.895a.434.434 0 00-.478-.362l-2.25.252a.438.438 0 00-.298.17.42.42 0 00-.081.333c.004.034.464 2.595-1.279 4.134l.043-4.369a.434.434 0 00-.486-.435l-2.25.252a.436.436 0 00-.388.443l.264 10.936a.44.44 0 00.452.422c.013 0 .021 0 .034-.004l1.9-.213a.437.437 0 00.389-.41l.157-3.417c.597.622 1.607 2.211 1.769 3.545.03.24.243.405.482.38l2.246-.252a.442.442 0 00.306-.179.416.416 0 00.073-.345zm20.772-4.13l.589-4.105-2.46-5.148-1.67.571-2.178-2.335L93.234.916l-.843 3.11-.597-1.631-2.958 2.89-1.653 2.889-.073 2.996-1.163-.554.792 4.799 1.803 3.09 4.25 1.457 3.481.128 6.001-2.195 1.726-4.27-1.198.405zm-2.595-2.28l-3.401.093-.124 3.827-.183 2.268-2.966-.03v-2.174l-.243-3.797-3.555.153-.123-3.673 5.238-.03 5.421-.154.094.49-.158 3.026z" fill="#3D4656"/></svg>