<svg width="84" height="30" fill="none" xmlns="http://www.w3.org/2000/svg"><path d="M.675 25.468h.628L.72 27.905c-.087.362-.07.634.049.816.12.182.341.273.666.273.322 0 .587-.091.794-.273.206-.182.353-.454.44-.816l.583-2.438h.637l-.598 2.498c-.13.543-.362.95-.693 1.22-.332.27-.767.404-1.305.404-.54 0-.909-.135-1.11-.403-.201-.269-.236-.676-.106-1.22l.598-2.5zm3.129 4.015l1-4.175 1.899 2.455a4.345 4.345 0 01.308.488l.666-2.784h.588l-.998 4.172-1.939-2.499a2.239 2.239 0 01-.27-.45l-.668 2.793h-.586zm4.409-.001l.962-4.015h.636l-.961 4.015h-.637zm1.551 0l.961-4.015h2.185l-.133.554h-1.548l-.24 1h1.548l-.137.574h-1.548l-.452 1.887h-.636zm2.886 0l.96-4.015h.636l-.96 4.015h-.637zm1.55 0l.961-4.015h2.184l-.132.554h-1.548l-.241 1.006h1.548l-.137.574h-1.548l-.311 1.297h1.548l-.14.584H14.2zm3.692-.589h.535c.294 0 .519-.02.676-.06.156-.04.3-.108.432-.203a1.7 1.7 0 00.449-.484c.12-.193.21-.418.272-.674.06-.256.078-.48.05-.672a.897.897 0 00-.217-.485.73.73 0 00-.348-.203c-.145-.04-.381-.06-.709-.06h-.46l-.68 2.841zm-.777.59l.96-4.015h.859c.558 0 .943.028 1.157.086.213.058.39.154.528.29.184.177.301.404.351.682.05.278.033.596-.052.952-.086.357-.22.673-.403.948a2.406 2.406 0 01-.677.681 2.084 2.084 0 01-.654.29c-.232.057-.579.086-1.04.086h-1.03zm6.9-2.337h.163c.353 0 .598-.04.734-.118.137-.078.229-.217.277-.417.05-.213.024-.364-.08-.452-.105-.088-.326-.132-.663-.132h-.163l-.268 1.12zm-.168.535l-.431 1.802h-.596l.961-4.015h.962c.286 0 .492.016.619.048a.732.732 0 01.313.158.68.68 0 01.199.377 1.23 1.23 0 01-.021.522 1.62 1.62 0 01-.23.527 1.29 1.29 0 01-.38.378 1.217 1.217 0 01-.389.156 3.23 3.23 0 01-.64.047h-.366zm2.792.224h1.09l-.182-.916a3.725 3.725 0 01-.038-.455 4.554 4.554 0 01-.25.455l-.62.916zm1.381 1.577l-.196-1.034h-1.551l-.702 1.034h-.668l2.895-4.174.893 4.174h-.67zm1.583 0l.44-1.837-.797-2.178h.669l.494 1.363a3.172 3.172 0 01.087.321 3.084 3.084 0 01.246-.337l1.164-1.347h.637l-1.87 2.178-.439 1.837h-.63zm6.07-1.982c0-.032.01-.117.027-.258.014-.117.025-.215.032-.291a2.536 2.536 0 01-.133.274 3.26 3.26 0 01-.178.28l-1.536 2.14-.502-2.184a2.563 2.563 0 01-.07-.51 3.29 3.29 0 01-.083.265 3.507 3.507 0 01-.122.289l-.893 1.978h-.585l1.926-4.186.549 2.534c.008.04.02.107.034.2l.05.346a5.93 5.93 0 01.28-.439l.075-.11 1.735-2.531-.056 4.186h-.591l.041-1.984zm1.058 1.982l.961-4.015h2.185l-.133.554h-1.548l-.241 1.006h1.548l-.137.574h-1.548l-.31 1.297h1.547l-.14.584h-2.184zm2.915.001l1-4.175 1.898 2.455a4.365 4.365 0 01.308.488l.667-2.784h.588l-.999 4.172-1.939-2.499a2.22 2.22 0 01-.27-.45l-.668 2.793h-.585zm6.491-3.461l-.829 3.461h-.636l.828-3.461h-1.04l.133-.554h2.711l-.132.554h-1.035zm.66 2.658l.566-.242c.006.179.061.316.167.41.105.094.258.141.458.141a.757.757 0 00.76-.595c.057-.236-.084-.446-.421-.63a2.822 2.822 0 00-.108-.061c-.38-.216-.621-.411-.723-.586-.101-.175-.122-.388-.062-.64.078-.328.25-.593.516-.796.265-.203.573-.304.924-.304.289 0 .517.057.683.171a.654.654 0 01.286.493l-.56.263a.602.602 0 00-.192-.277.496.496 0 00-.3-.088.72.72 0 00-.442.137.63.63 0 00-.239.368c-.057.241.11.466.502.675l.07.038c.344.183.567.362.67.536.102.175.122.393.06.654a1.58 1.58 0 01-.568.907 1.62 1.62 0 01-1.026.336c-.334 0-.588-.079-.764-.236-.175-.157-.26-.382-.257-.675zm4.701.802l.961-4.015h.636l-.961 4.015h-.636zm1.55.001l1-4.175 1.899 2.455a4.3 4.3 0 01.308.488l.666-2.784h.588l-.998 4.172-1.94-2.499a2.241 2.241 0 01-.269-.45l-.668 2.793h-.586zm6.492-3.461l-.83 3.461h-.635l.828-3.461h-1.04l.133-.554h2.71l-.132.554H59.54zm.693 3.46l.961-4.015h2.184l-.132.554h-1.548l-.241 1.006h1.548l-.137.574H61.32l-.31 1.297h1.547l-.14.584h-2.184zm4.101-2.304h.115c.337 0 .57-.04.7-.12.13-.08.22-.223.268-.428.053-.221.032-.377-.066-.468-.096-.09-.305-.136-.626-.136h-.115l-.276 1.152zm-.161.508l-.43 1.796h-.596l.961-4.015h.888c.26 0 .457.017.592.052a.705.705 0 01.327.173.697.697 0 01.19.376c.03.153.022.321-.022.504-.076.322-.212.574-.407.756a1.291 1.291 0 01-.75.327l.91 1.827h-.72l-.871-1.796h-.072zm2.041 1.796l.96-4.015h2.185l-.132.554h-1.549l-.24 1h1.549l-.137.574h-1.548l-.452 1.887h-.636zm3.883-1.577h1.09l-.181-.916a3.627 3.627 0 01-.038-.455 4.945 4.945 0 01-.251.455l-.62.916zm1.382 1.577l-.197-1.034h-1.55l-.703 1.034h-.668l2.894-4.174.895 4.174h-.671zm4.812-3.038a1.403 1.403 0 00-1.09-.472c-.428 0-.81.141-1.145.422a1.991 1.991 0 00-.665 1.095c-.103.433-.058.79.135 1.072.194.282.49.423.887.423.232 0 .463-.042.692-.126.23-.085.461-.212.694-.382l-.176.738c-.202.126-.41.22-.627.283a2.44 2.44 0 01-.677.093c-.3 0-.564-.05-.794-.151-.23-.1-.418-.248-.564-.444a1.476 1.476 0 01-.277-.68 2.15 2.15 0 01.046-.832c.07-.294.188-.57.352-.83a2.81 2.81 0 01.608-.68c.242-.198.5-.348.776-.45.276-.1.56-.152.852-.152.23 0 .441.035.633.104.192.068.37.171.533.31l-.193.659zm.061 3.038l.962-4.015h2.184l-.133.554h-1.548l-.24 1.006h1.547l-.137.574h-1.548l-.31 1.297h1.547l-.14.584h-2.184z" fill="#696A6A"/><path d="M64.748 21.969h-4.374L66.457 0h4.374l-6.083 21.97zM62.477.695c-.303-.418-.771-.63-1.406-.63H37.02l-1.191 4.303h4.376v-.002h17.503l-1.273 4.598H38.93l.002-.01h-4.375l-3.63 13.107h4.376l2.437-8.797h19.675c.615 0 1.193-.21 1.737-.628.543-.42.9-.938 1.071-1.555l2.437-8.8c.177-.638.116-1.168-.184-1.586zM28.379 20.597a2.01 2.01 0 01-1.937 1.471H3.876c-.615 0-1.072-.21-1.372-.628-.3-.42-.365-.938-.193-1.555L7.817.064h4.378L7.277 17.767h17.511L29.706.064h4.377L28.38 20.597z" fill="#66686C"/><path d="M78.385.041l5.537 11.013-11.64 11.01L78.384.04z" fill="#27803B"/><path d="M74.503.041l5.533 11.013-11.645 11.01L74.503.04z" fill="#E9661C"/></svg>