<svg width="70" height="22" fill="none" xmlns="http://www.w3.org/2000/svg"><path d="M30.346 21.257h-5.712L28.204.373h5.712l-3.57 20.884zM19.829.373l-5.446 14.364-.644-3.093v.001l-1.921-9.391s-.233-1.88-2.71-1.88H.106L0 .726s2.753.545 5.975 2.387l4.962 18.144h5.952L25.976.373h-6.147zm44.926 20.884H70L65.427.373h-4.591c-2.12 0-2.637 1.556-2.637 1.556L49.68 21.257h5.954l1.191-3.102h7.261l.67 3.102zM58.47 13.87l3.001-7.815 1.689 7.815h-4.69zm-8.343-8.475l.815-4.484S48.427 0 45.805 0c-2.835 0-9.566 1.18-9.566 6.914 0 5.395 7.9 5.462 7.9 8.296 0 2.834-7.086 2.326-9.425.54l-.849 4.688s2.55 1.18 6.447 1.18c3.898 0 9.778-1.921 9.778-7.15 0-5.43-7.97-5.936-7.97-8.297 0-2.361 5.563-2.058 8.007-.776z" fill="#fff"/></svg>