<svg width="160" height="85" fill="none" xmlns="http://www.w3.org/2000/svg"><path d="M73.902 57.073H66.42l4.677-28.275h7.484l-4.678 28.275zM60.124 28.798L52.99 48.246l-.844-4.188v.002L49.63 31.344s-.305-2.546-3.55-2.546H34.285l-.139.479s3.607.738 7.828 3.232l6.501 24.565h7.797l11.906-28.276h-8.054zm58.859 28.275h6.871l-5.991-28.276h-6.016c-2.777 0-3.454 2.108-3.454 2.108l-11.16 26.168h7.8l1.56-4.2h9.513l.877 4.2zm-8.235-10.002l3.932-10.58 2.212 10.58h-6.144zm-10.93-11.473l1.068-6.072s-3.296-1.233-6.73-1.233c-3.714 0-12.533 1.597-12.533 9.36 0 7.305 10.35 7.396 10.35 11.233 0 3.837-9.284 3.15-12.347.73l-1.113 6.349s3.341 1.596 8.447 1.596c5.106 0 12.81-2.6 12.81-9.68 0-7.352-10.443-8.036-10.443-11.233 0-3.197 7.288-2.786 10.49-1.05z" fill="url(#paint0_linear_1617_77697)"/><defs><linearGradient id="paint0_linear_1617_77697" x1="34.146" y1="28.293" x2="125.575" y2="58.407" gradientUnits="userSpaceOnUse"><stop stop-color="#20225F"/><stop offset=".293" stop-color="#18216C"/><stop offset="1" stop-color="#0E2C9A"/></linearGradient></defs></svg>