<svg width="160" height="86" fill="none" xmlns="http://www.w3.org/2000/svg"><path fill-rule="evenodd" clip-rule="evenodd" d="M108.128 36.935c.262.088.447.297.631.493 2.589 2.726 5.196 5.432 7.78 8.162.005-2.731-.007-5.462.005-8.193.701-.002 1.4.01 2.101-.012.066.246.094.498.087.753-.014 4.153.005 8.306-.009 12.46-.052.024-.155.07-.206.095-2.783-2.83-5.477-5.75-8.256-8.584-.026 2.722.032 5.448-.028 8.172-.706-.031-1.412-.016-2.116-.012.002-4.445-.017-8.89.011-13.334zm-55.491.335c1.63-.595 3.384-.168 4.972.343.02 1.012.01 2.022.01 3.034-.976-.594-2.031-1.188-3.2-1.222-.59-.038-1.316.324-1.326.986-.04.484.346.854.713 1.102 1.415.886 3.06 1.51 4.15 2.83 1.324 1.814.621 4.713-1.381 5.733-1.847.98-4.047.58-5.951-.011-.11-1.14-.182-2.28-.227-3.424 1.102.689 2.324 1.332 3.659 1.31.567-.04 1.237-.212 1.516-.763.292-.494.07-1.148-.365-1.48-1.248-.997-2.862-1.483-3.96-2.675a3.614 3.614 0 01-.97-2.818c.072-1.354 1.093-2.53 2.36-2.946zm46.927 4.373c-.66 1.486-1.287 2.989-1.972 4.464 1.386.063 2.777.014 4.164.023-.666-1.573-1.358-3.135-2.022-4.71-.042.057-.127.167-.17.223zm-.518-3.224c.257-.508.438-1.057.783-1.517 2.07 4.435 4.065 8.904 6.094 13.36-.774.005-1.55-.007-2.324.012a63.165 63.165 0 01-1.032-2.294c-1.937-.01-3.873-.004-5.808-.004-.343.767-.678 1.538-1.05 2.293-.754-.01-1.505-.004-2.256-.007 1.883-3.937 3.721-7.898 5.593-11.843zm-73.17-1.022c1.204-.007 2.406.013 3.608-.01.938 1.342 1.785 2.743 2.712 4.094a208.47 208.47 0 012.945-4.087c1.06.01 2.118-.006 3.177.009-1.604 2.25-3.332 4.418-4.896 6.691-.028 2.054-.007 4.11-.009 6.165-1.004.007-2.009.004-3.013.002-.016-2.04.033-4.084-.023-6.121-1.471-2.265-3.035-4.471-4.501-6.743zm13.759 12.868c.007-4.29-.008-8.581.01-12.87 2.608.007 5.217.002 7.825.003.007.875-.009 1.752.013 2.628-1.63.065-3.271-.058-4.905.056.004.772-.002 1.545.007 2.315 1.398-.005 2.797-.017 4.195.009-.018.868-.005 1.738-.007 2.61-1.4-.001-2.797 0-4.195-.003.005.846.002 1.693.002 2.538 1.65.002 3.299-.013 4.948.006.003.903.01 1.806-.004 2.711-2.63-.008-5.259-.005-7.889-.003zm46.179-5.799c.005 1.335.002 2.672.003 4.007.977-.035 2.022.143 2.94-.278 1.227-.56 1.391-2.518.31-3.296-.952-.658-2.172-.373-3.253-.433zm-.002-5.348c.007 1.209.004 2.42.004 3.63.957-.026 2.016.148 2.876-.382 1.022-.573 1.142-2.359.06-2.93-.906-.456-1.962-.29-2.94-.318zm-2.139-1.721c1.627.036 3.259-.082 4.879.09 1.048.123 2.189.54 2.738 1.507.585 1.067.594 2.533-.212 3.494-.351.435-.872.668-1.36.914.937.257 1.77.937 2.071 1.878.355 1.159.257 2.532-.49 3.52-.832 1.062-2.25 1.362-3.525 1.445-1.37.038-2.738.01-4.106.02.01-4.29-.004-8.579.005-12.868z" fill="#FFFFFE"/><mask id="a" style="mask-type:alpha" maskUnits="userSpaceOnUse" x="19" y="21" width="122" height="44"><path d="M19.512 21.367h120.976V64.86H19.512V21.367z" fill="#fff"/></mask><g mask="url(#a)" fill-rule="evenodd" clip-rule="evenodd"><path d="M122.781 50.266c.005-4.291-.032-8.584.017-12.875.72.01 1.44.007 2.16.003.029 1.922 0 3.844.01 5.766 1.812-1.922 3.619-3.847 5.439-5.76.855-.006 1.711-.002 2.567-.004-1.922 2.072-3.87 4.121-5.808 6.182 2.146 2.219 4.267 4.462 6.416 6.676-.956.02-1.91.002-2.865.014-1.91-2.011-3.827-4.015-5.745-6.016-.011 2.002.003 4.005-.006 6.01-.728.004-1.457-.003-2.185.004z" fill="#FFFFFE"/><path d="M84.141 23.84c.626-.822 1.2-1.685 1.872-2.473-6.549 11.574-13.05 23.177-19.585 34.76-1.629 2.922-3.297 5.822-4.908 8.752a1.547 1.547 0 01-.381-.283c-2.3-2.343-4.611-4.672-6.914-7.012 1.635-.017 3.269-.001 4.905-.008 8.337-11.244 16.675-22.49 25.011-33.736z" fill="#B12B2B"/><path d="M39.636 50.266c2.63-.002 5.259-.006 7.889.003.013-.905.006-1.808.003-2.712-1.65-.019-3.299-.003-4.948-.005 0-.846.003-1.693-.002-2.539 1.398.004 2.795.002 4.195.004.002-.872-.01-1.742.007-2.61-1.398-.027-2.797-.014-4.195-.01-.009-.77-.003-1.542-.007-2.315 1.634-.113 3.274.01 4.905-.056-.021-.875-.006-1.752-.013-2.627-2.608-.002-5.217.003-7.825-.004-.018 4.29-.003 8.581-.01 12.87zm-13.76-12.867c1.466 2.271 3.03 4.478 4.5 6.742.057 2.038.008 4.082.024 6.121 1.004.002 2.009.005 3.013-.002.002-2.054-.018-4.111.01-6.164 1.563-2.273 3.291-4.441 4.895-6.692-1.059-.014-2.117.002-3.176-.009a204.43 204.43 0 00-2.946 4.087c-.926-1.35-1.774-2.752-2.712-4.094-1.202.023-2.404.004-3.608.01zm26.76-.13c-1.266.416-2.286 1.592-2.36 2.946a3.61 3.61 0 00.972 2.818c1.097 1.192 2.712 1.678 3.96 2.675.434.332.656.986.364 1.48-.28.55-.948.724-1.516.762-1.335.023-2.557-.62-3.659-1.309.046 1.143.117 2.285.227 3.424 1.904.592 4.104.992 5.951.012 2.003-1.02 2.705-3.92 1.38-5.733-1.088-1.32-2.734-1.945-4.15-2.83-.366-.249-.752-.619-.712-1.103.01-.662.735-1.024 1.326-.986 1.17.034 2.224.628 3.2 1.222 0-1.012.01-2.022-.01-3.034-1.588-.511-3.342-.938-4.972-.344zm-33.124-6.321c19.544-.028 39.085.002 58.628-.014-6.5 8.584-12.954 17.203-19.484 25.765-13.043-.01-26.087-.007-39.13.005-.03-8.586-.001-17.17-.014-25.756zm103.269 19.32c.728-.007 1.457 0 2.185-.005.009-2.005-.005-4.007.006-6.01 1.918 2.001 3.835 4.005 5.745 6.016.955-.012 1.909.006 2.865-.014-2.149-2.213-4.27-4.457-6.416-6.676 1.938-2.06 3.886-4.11 5.808-6.182-.856.002-1.712-.002-2.567.004-1.82 1.913-3.627 3.839-5.439 5.76-.01-1.921.019-3.843-.01-5.766-.72.004-1.44.008-2.16-.003-.049 4.291-.012 8.584-.017 12.876zm-39.108-12.87c-.008 4.289.006 8.578-.005 12.868 1.368-.01 2.736.017 4.106-.02 1.276-.083 2.693-.384 3.524-1.446.748-.987.846-2.36.491-3.52-.3-.94-1.134-1.62-2.07-1.877.487-.247 1.008-.479 1.36-.914.805-.961.796-2.427.21-3.495-.548-.966-1.689-1.383-2.737-1.506-1.62-.173-3.252-.054-4.879-.09zm15.373 1.021c-1.872 3.946-3.71 7.907-5.593 11.844.751.003 1.502-.004 2.255.006.373-.754.708-1.525 1.05-2.292 1.937 0 3.872-.007 5.808.003.334.77.67 1.538 1.033 2.295.774-.02 1.55-.007 2.324-.012-2.029-4.456-4.024-8.925-6.095-13.36-.344.46-.525 1.008-.782 1.516zm9.082-1.483c-.028 4.443-.009 8.888-.01 13.333.704-.003 1.41-.018 2.116.013.059-2.724.001-5.45.027-8.172 2.779 2.834 5.473 5.753 8.256 8.584.051-.025.154-.071.206-.096.014-4.154-.005-8.307.009-12.46a2.618 2.618 0 00-.087-.753c-.701.023-1.4.01-2.1.013-.012 2.73 0 5.461-.006 8.192-2.584-2.729-5.191-5.436-7.78-8.161-.184-.196-.369-.406-.631-.493zm-31.054 1.49c1.41-2.49 2.726-5.035 4.178-7.497 19.733.012 39.468.021 59.202-.005.063 8.591.018 17.186.023 25.779-24.49-.016-48.978-.003-73.467-.005 3.332-6.104 6.716-12.177 10.064-18.271z" fill="#19497D"/></g><path fill-rule="evenodd" clip-rule="evenodd" d="M85.812 39.117c.978.028 2.034-.138 2.94.318 1.083.57.962 2.357-.06 2.93-.86.53-1.919.356-2.876.383 0-1.212.003-2.422-.004-3.631zm13.753 2.525l.17-.222c.664 1.574 1.356 3.136 2.021 4.709-1.387-.009-2.778.04-4.163-.023.685-1.475 1.312-2.977 1.972-4.464zm-13.751 2.823c1.082.06 2.301-.225 3.253.433 1.082.778.918 2.735-.309 3.295-.92.422-1.964.244-2.94.279-.002-1.336.001-2.672-.004-4.007z" fill="#19497D"/></svg>