<svg width="122" height="44" fill="none" xmlns="http://www.w3.org/2000/svg"><path fill-rule="evenodd" clip-rule="evenodd" d="M89.253 15.75c.264.088.451.3.636.499 2.608 2.757 5.233 5.495 7.836 8.256.006-2.763-.006-5.525.006-8.288.705-.002 1.409.01 2.115-.013.067.25.095.504.088.762-.014 4.202.005 8.403-.009 12.605l-.208.098c-2.803-2.864-5.516-5.818-8.315-8.685-.026 2.754.032 5.512-.028 8.267-.71-.031-1.422-.015-2.131-.012.002-4.497-.018-8.994.01-13.489zm-55.89.338c1.642-.6 3.409-.17 5.008.348.02 1.024.01 2.046.01 3.069-.983-.6-2.046-1.202-3.223-1.236-.595-.039-1.325.328-1.336.998-.04.49.349.864.718 1.115 1.426.896 3.084 1.527 4.18 2.863 1.334 1.835.627 4.768-1.39 5.8-1.86.992-4.076.587-5.994-.012a61.491 61.491 0 01-.229-3.463c1.11.696 2.34 1.347 3.685 1.324.572-.039 1.246-.214 1.527-.771.294-.5.07-1.162-.367-1.497-1.257-1.01-2.883-1.5-3.988-2.707a3.666 3.666 0 01-.979-2.85c.074-1.37 1.102-2.56 2.378-2.98zm47.266 4.424c-.665 1.505-1.297 3.025-1.987 4.517 1.396.064 2.797.014 4.194.023-.67-1.591-1.368-3.171-2.036-4.764l-.171.224zm-.523-3.261c.259-.514.442-1.07.789-1.534 2.085 4.486 4.095 9.008 6.138 13.516-.78.005-1.561-.008-2.34.012a66.123 66.123 0 01-1.04-2.321c-1.95-.01-3.9-.004-5.85-.004-.345.776-.683 1.556-1.058 2.32-.758-.011-1.515-.004-2.272-.007 1.897-3.983 3.748-7.99 5.633-11.982zM6.41 16.219c1.212-.007 2.423.012 3.634-.011.945 1.358 1.798 2.775 2.731 4.142a208.786 208.786 0 012.967-4.135c1.067.01 2.133-.005 3.2.01-1.616 2.276-3.357 4.47-4.931 6.77-.028 2.076-.007 4.157-.01 6.235-1.011.008-2.023.004-3.035.003-.016-2.064.033-4.132-.023-6.193-1.482-2.29-3.056-4.523-4.533-6.821zm13.859 13.017c.007-4.34-.009-8.681.009-13.021 2.627.007 5.255.002 7.882.003.007.886-.009 1.773.012 2.659-1.642.066-3.294-.058-4.94.057.004.78-.002 1.562.008 2.342 1.407-.005 2.817-.018 4.225.009-.018.878-.006 1.759-.007 2.64-1.41-.001-2.818 0-4.225-.003.005.856.001 1.713.001 2.569 1.662.001 3.323-.015 4.984.005.003.914.01 1.828-.003 2.743-2.65-.009-5.298-.005-7.946-.003zm46.51-5.868c.005 1.35.002 2.703.003 4.053.984-.035 2.036.145 2.962-.28 1.236-.568 1.4-2.548.311-3.335-.959-.666-2.187-.378-3.276-.438zm-.002-5.41c.007 1.223.004 2.447.004 3.673.964-.027 2.03.148 2.896-.388 1.03-.58 1.151-2.386.062-2.964-.914-.461-1.977-.293-2.962-.322zm-2.154-1.742c1.638.037 3.282-.083 4.913.092 1.056.124 2.205.546 2.758 1.524.59 1.08.598 2.563-.213 3.535-.354.44-.878.675-1.37.924.944.26 1.784.948 2.086 1.9.358 1.173.26 2.562-.494 3.561-.838 1.075-2.265 1.379-3.55 1.462-1.38.039-2.757.01-4.136.021.011-4.34-.003-8.68.006-13.019z" fill="#FFFFFE"/><mask id="a" style="mask-type:alpha" maskUnits="userSpaceOnUse" x="0" y="0" width="122" height="44"><path d="M0 0h121.846v44H0V0z" fill="#fff"/></mask><g mask="url(#a)" fill-rule="evenodd" clip-rule="evenodd"><path d="M104.012 29.237c.005-4.341-.032-8.685.017-13.026.726.01 1.451.007 2.176.003.029 1.945 0 3.89.01 5.834 1.825-1.945 3.645-3.893 5.478-5.828.861-.006 1.723-.002 2.586-.004-1.936 2.097-3.899 4.17-5.85 6.254 2.161 2.245 4.298 4.515 6.462 6.754-.963.02-1.924.002-2.886.014a1803.573 1803.573 0 00-5.786-6.085c-.011 2.025.003 4.051-.006 6.079-.733.005-1.467-.002-2.201.005z" fill="#FFFFFE"/><path d="M65.095 2.501c.63-.83 1.21-1.704 1.885-2.501-6.596 11.71-13.144 23.448-19.726 35.166-1.64 2.956-3.32 5.89-4.944 8.854a1.56 1.56 0 01-.383-.286c-2.316-2.37-4.644-4.727-6.964-7.094 1.648-.017 3.293-.001 4.94-.008C48.301 25.256 56.7 13.88 65.095 2.502z" fill="#B12B2B"/><path d="M20.268 29.235c2.649-.001 5.297-.005 7.946.004.014-.916.007-1.83.003-2.743-1.661-.02-3.322-.004-4.983-.006 0-.855.003-1.712-.002-2.568 1.408.003 2.815.002 4.225.003.002-.882-.01-1.762.007-2.64-1.408-.027-2.817-.015-4.225-.01-.01-.779-.004-1.56-.007-2.342 1.645-.114 3.298.01 4.94-.056-.022-.886-.006-1.773-.013-2.659-2.627-.001-5.255.004-7.882-.003-.018 4.34-.002 8.68-.009 13.02zM6.41 16.218c1.477 2.298 3.052 4.53 4.534 6.822.056 2.06.007 4.129.023 6.192 1.012.002 2.023.005 3.035-.002.002-2.079-.019-4.16.01-6.236 1.574-2.3 3.315-4.494 4.93-6.77-1.066-.015-2.133.001-3.2-.01a208.79 208.79 0 00-2.966 4.135c-.933-1.366-1.787-2.784-2.732-4.141-1.21.023-2.42.003-3.634.01zm26.954-.13c-1.276.42-2.304 1.61-2.377 2.98-.1 1.034.262 2.1.978 2.851 1.105 1.206 2.731 1.697 3.988 2.706.438.336.662.997.367 1.497-.281.557-.955.732-1.527.771-1.345.023-2.575-.627-3.685-1.324.046 1.156.118 2.31.229 3.463 1.918.6 4.133 1.004 5.994.012 2.017-1.032 2.724-3.964 1.39-5.8-1.096-1.335-2.754-1.966-4.18-2.863-.37-.25-.758-.625-.718-1.115.011-.67.741-1.036 1.336-.997 1.178.033 2.24.635 3.222 1.235 0-1.023.01-2.045-.009-3.068-1.6-.518-3.366-.95-5.008-.348zM0 9.692c19.684-.028 39.366.002 59.05-.014-6.547 8.684-13.048 17.404-19.624 26.066-13.138-.01-26.275-.007-39.412.005C-.016 27.063.013 18.38 0 9.692zm104.011 19.546c.734-.007 1.468 0 2.202-.005.008-2.028-.006-4.054.005-6.08 1.932 2.024 3.863 4.052 5.786 6.087.963-.013 1.924.005 2.886-.015-2.164-2.24-4.301-4.509-6.462-6.754 1.952-2.084 3.914-4.157 5.85-6.254-.862.002-1.725-.002-2.585.004-1.834 1.935-3.654 3.883-5.479 5.828-.01-1.945.02-3.89-.01-5.834-.725.004-1.45.008-2.175-.003-.05 4.341-.013 8.684-.018 13.026zm-39.389-13.02c-.008 4.339.006 8.678-.005 13.018 1.378-.01 2.756.018 4.136-.021 1.285-.083 2.712-.387 3.55-1.462.753-.999.851-2.388.494-3.56-.303-.953-1.142-1.64-2.086-1.9.491-.25 1.016-.485 1.37-.925.81-.972.802-2.455.213-3.535-.553-.978-1.702-1.4-2.758-1.524-1.632-.175-3.275-.055-4.914-.092zm15.483 1.033c-1.884 3.992-3.736 7.999-5.633 11.982.757.003 1.514-.004 2.272.006.375-.763.713-1.543 1.058-2.319 1.95 0 3.9-.007 5.85.004.336.778.673 1.556 1.04 2.32.779-.019 1.56-.006 2.34-.011-2.043-4.508-4.053-9.03-6.138-13.516-.347.465-.53 1.02-.789 1.534zm9.148-1.5c-.028 4.495-.009 8.992-.01 13.489.709-.004 1.42-.02 2.13.012.06-2.756.002-5.513.029-8.267 2.798 2.867 5.511 5.82 8.315 8.684.051-.025.155-.072.208-.097.014-4.202-.006-8.404.008-12.605a2.636 2.636 0 00-.088-.762c-.706.023-1.41.01-2.115.012-.012 2.763 0 5.526-.005 8.289-2.603-2.761-5.229-5.5-7.837-8.257-.184-.198-.371-.41-.635-.498zm-31.278 1.507c1.42-2.518 2.746-5.094 4.208-7.585 19.876.013 39.753.021 59.629-.005.063 8.692.017 17.387.023 26.08-24.666-.015-49.33-.003-73.996-.005 3.356-6.175 6.765-12.32 10.136-18.485z" fill="#19497D"/></g><path fill-rule="evenodd" clip-rule="evenodd" d="M66.777 17.957c.985.029 2.048-.139 2.962.322 1.09.578.968 2.385-.062 2.965-.866.535-1.932.36-2.897.387 0-1.225.004-2.45-.003-3.674zm13.852 2.555l.17-.225c.67 1.593 1.366 3.173 2.037 4.764-1.397-.008-2.798.04-4.194-.023.69-1.492 1.322-3.012 1.987-4.516zM66.78 23.369c1.09.06 2.317-.229 3.276.438 1.09.787.924 2.767-.311 3.334-.926.426-1.978.246-2.962.28-.002-1.35.002-2.702-.004-4.052z" fill="#19497D"/></svg>